<?xml version="1.0" encoding="UTF-8"?>
<svg version="1.1" xmlns="http://www.w3.org/2000/svg" width="512" height="512">
<path d="M0 0 C15.94191919 7.9709596 15.94191919 7.9709596 21.75 11.5 C23.18155165 12.35540633 24.61390051 13.20947935 26.046875 14.0625 C27.21186523 14.75666016 27.21186523 14.75666016 28.40039062 15.46484375 C33.57474426 18.52047257 38.79122028 21.50358369 44 24.5 C46.2267151 25.78489182 48.45328 27.070044 50.6796875 28.35546875 C54.59679792 30.61652178 58.51861392 32.8689308 62.4453125 35.11328125 C64.00541432 36.01266362 65.56532589 36.91237612 67.125 37.8125 C67.83527344 38.2146875 68.54554688 38.616875 69.27734375 39.03125 C70.88548656 39.96469338 72.44922426 40.97406898 74 42 C74 42.66 74 43.32 74 44 C72.40885417 44.91796875 70.81770833 45.8359375 69.2265625 46.75390625 C68.18717529 47.35356201 67.14778809 47.95321777 66.0769043 48.57104492 C63.74506819 49.91631595 61.41320438 51.26153882 59.08129883 52.60668945 C53.12763695 56.04112982 47.17446122 59.4764046 41.22265625 62.9140625 C34.81732352 66.61323128 28.40957238 70.30818251 22 74 C20.95650391 74.60134766 19.91300781 75.20269531 18.83789062 75.82226562 C15.87251402 77.52982987 12.90534701 79.23423393 9.9375 80.9375 C8.59788208 81.70936646 8.59788208 81.70936646 7.23120117 82.49682617 C6.42142822 82.96064697 5.61165527 83.42446777 4.77734375 83.90234375 C4.06827881 84.30960693 3.35921387 84.71687012 2.62866211 85.13647461 C1 86 1 86 0 86 C0 74.45 0 62.9 0 51 C-6.52423233 50.91625877 -6.52423233 50.91625877 -13.18026733 50.83082581 C-59.10544395 50.23418432 -105.02788602 49.51340918 -150.95031253 48.73520216 C-160.72787704 48.56956148 -170.50546592 48.40537963 -180.28305571 48.24123878 C-197.70092686 47.94880129 -215.11877999 47.65530553 -232.53662109 47.36108398 C-249.39468421 47.07632059 -266.25275624 46.79209315 -283.11083984 46.50854492 C-284.16074272 46.49088567 -285.2106456 46.47322642 -286.29236372 46.45503204 C-291.56263414 46.36638985 -296.83290473 46.27775775 -302.1031754 46.18913066 C-345.40214333 45.46098408 -388.70108176 44.73109496 -432 44 C-432 43.34 -432 42.68 -432 42 C-379.27643366 41.10665868 -326.55284341 40.21474056 -273.82922083 39.32472411 C-267.6009908 39.21958544 -261.37276096 39.11443503 -255.14453125 39.00927734 C-253.90463247 38.98834304 -252.66473369 38.96740874 -251.38726223 38.94584006 C-231.32596039 38.60709941 -211.26467477 38.26740739 -191.20339501 37.92736214 C-170.6099886 37.57831842 -150.01656503 37.23030088 -129.42312527 36.88323069 C-116.72172194 36.66913622 -104.02033258 36.45424678 -91.31896007 36.23833191 C-82.60245184 36.09023387 -73.88592709 35.94313498 -65.16938889 35.79681146 C-60.14473368 35.71243396 -55.12008674 35.62762585 -50.09545898 35.54162788 C-45.48585413 35.46274293 -40.87622965 35.38512633 -36.26658714 35.3084746 C-34.60816284 35.28068127 -32.94974594 35.25244167 -31.29133809 35.22368377 C-29.01610847 35.18429875 -26.74085598 35.14662674 -24.46559143 35.10932159 C-23.2079577 35.08805726 -21.95032396 35.06679292 -20.65458012 35.0448842 C-13.7700239 34.9784963 -6.88487629 35 0 35 C0 23.45 0 11.9 0 0 Z " fill="#000000" transform="translate(437,213)"/>
</svg>
