<?xml version="1.0" encoding="UTF-8"?>
<svg version="1.1" xmlns="http://www.w3.org/2000/svg" width="512" height="512">
<path d="M0 0 C6.79511713 2.03726975 10.80478708 10.91267845 14.41015625 16.44140625 C15.05533203 17.42044922 15.70050781 18.39949219 16.36523438 19.40820312 C17.94801719 21.81168814 19.52527871 24.21860653 21.09765625 26.62890625 C21.1116748 25.66065918 21.1116748 25.66065918 21.12597656 24.67285156 C21.17974726 21.74076681 21.26337965 18.81026617 21.34765625 15.87890625 C21.36183594 14.863125 21.37601563 13.84734375 21.390625 12.80078125 C21.63689967 5.31403125 21.63689967 5.31403125 23.89453125 1.95703125 C26.20166627 0.56620517 27.42597915 0.0871613 30.09765625 0.12890625 C31.08765625 0.1134375 31.08765625 0.1134375 32.09765625 0.09765625 C35.01077536 0.87145351 36.19216093 2.32709723 38.09765625 4.62890625 C38.57867432 7.12200928 38.57867432 7.12200928 38.55175781 9.94824219 C38.55130463 11.53943878 38.55130463 11.53943878 38.55084229 13.16278076 C38.53019714 14.30144592 38.509552 15.44011108 38.48828125 16.61328125 C38.48262146 17.78401184 38.47696167 18.95474243 38.47113037 20.16094971 C38.4487375 23.90068425 38.39853305 27.63946122 38.34765625 31.37890625 C38.32759514 33.91404867 38.30934369 36.4492061 38.29296875 38.984375 C38.24886303 45.19954554 38.18192079 51.41415749 38.09765625 57.62890625 C38.68466812 57.68767944 39.27167999 57.74645264 39.8764801 57.80700684 C44.15314642 58.25491417 48.31291531 58.77469344 52.5 59.78515625 C53.40943359 60.00300781 54.31886719 60.22085938 55.25585938 60.4453125 C56.63161133 60.78369141 56.63161133 60.78369141 58.03515625 61.12890625 C58.97939453 61.35449219 59.92363281 61.58007812 60.89648438 61.8125 C67.81048999 63.48532312 67.81048999 63.48532312 70.09765625 64.62890625 C70.20078125 63.51515625 70.30390625 62.40140625 70.41015625 61.25390625 C70.75046875 59.45953125 70.75046875 59.45953125 71.09765625 57.62890625 C74.86394891 55.11804448 77.74164284 55.06402967 82.09765625 55.62890625 C85.43881487 56.57703391 88.55451381 57.90146098 91.72265625 59.31640625 C92.62636963 59.71359863 93.53008301 60.11079102 94.46118164 60.52001953 C110.60539895 67.8339129 125.65060381 77.0850742 139.09765625 88.62890625 C140.37382813 89.71365234 140.37382813 89.71365234 141.67578125 90.8203125 C144.20597053 93.0362686 146.6581856 95.31341467 149.09765625 97.62890625 C149.6179541 98.11665527 150.13825195 98.6044043 150.67431641 99.10693359 C172.32122476 119.51758932 194.21794118 149.12868805 201.09765625 178.62890625 C201.09765625 182.53185267 200.67065032 183.89784485 198.28515625 186.94140625 C196.08545528 188.63831843 194.75361616 189.06653319 192.09765625 189.62890625 C192.36320312 190.77746094 192.62875 191.92601562 192.90234375 193.109375 C193.25935181 194.67833146 193.6161089 196.24734503 193.97265625 197.81640625 C194.14667969 198.56599609 194.32070313 199.31558594 194.5 200.08789062 C197.47933992 213.27422841 198.5033223 225.96748853 198.47265625 239.44140625 C198.47244476 240.29929749 198.47223328 241.15718872 198.47201538 242.04107666 C198.42205605 262.39559573 195.50847826 281.29134477 189.09765625 300.62890625 C190.04769531 300.75007813 190.99773437 300.87125 191.9765625 300.99609375 C195.09765625 301.62890625 195.09765625 301.62890625 197.03515625 303.75390625 C199.34814667 310.01258621 196.38585267 316.07218693 193.78515625 321.81640625 C193.43759277 322.58815186 193.0900293 323.35989746 192.73193359 324.1550293 C184.45641471 341.98046123 173.4861266 357.9327226 160.18359375 372.35546875 C158.24543075 374.46784865 156.38742354 376.62888697 154.53515625 378.81640625 C151.01999503 382.82576247 147.20581914 386.23804164 143.09765625 389.62890625 C142.59266602 390.056875 142.08767578 390.48484375 141.56738281 390.92578125 C127.10109919 403.16454299 111.24954264 412.63947075 94.09765625 420.62890625 C92.98132813 421.15742188 91.865 421.6859375 90.71484375 422.23046875 C84.9673883 424.80890114 80.41011323 426.64340826 74.09765625 425.62890625 C71.59765625 423.94140625 71.59765625 423.94140625 70.09765625 421.62890625 C70.00390625 418.984375 70.00390625 418.984375 70.09765625 416.62890625 C69.43765625 416.87125 68.77765625 417.11359375 68.09765625 417.36328125 C56.71357497 421.2172671 44.94629406 422.82676596 33.09765625 424.62890625 C32.9704096 427.55467904 32.9704096 427.55467904 33.72265625 430.00390625 C34.18723735 433.25597396 33.67815696 434.76895258 32.09765625 437.62890625 C30.47265625 439.50390625 30.47265625 439.50390625 28.09765625 440.62890625 C22.96156158 440.62890625 22.96156158 440.62890625 20.09765625 439.62890625 C17.84765625 437.06640625 17.84765625 437.06640625 16.09765625 434.62890625 C14.77765625 434.62890625 13.45765625 434.62890625 12.09765625 434.62890625 C12.09765625 435.94890625 12.09765625 437.26890625 12.09765625 438.62890625 C13.16693359 438.86673828 13.16693359 438.86673828 14.2578125 439.109375 C22.21880479 441.04872844 27.33957886 443.23434946 32.53515625 449.62890625 C35.48797635 455.4706326 35.10951537 462.88682371 33.4375 469.0703125 C31.25132635 474.05781689 27.84692585 477.06143568 23.09765625 479.62890625 C17.16840888 481.60532204 10.22681246 481.8895735 4.3828125 479.53515625 C-0.65875213 476.38103262 -3.64584416 473.12299221 -5.90234375 467.62890625 C-6.26321023 464.56154113 -6.10292673 462.40895119 -5.33984375 459.44140625 C-3.08018279 456.59226852 -0.28272271 455.88089846 3.09765625 454.62890625 C2.35515625 454.13390625 1.61265625 453.63890625 0.84765625 453.12890625 C-3.59278805 449.0921387 -5.63529282 445.3884325 -6.21875 439.359375 C-6.38113093 429.71394753 -6.38113093 429.71394753 -3.90234375 425.62890625 C-5.5332208 423.9980292 -7.54961811 424.13156526 -9.79296875 423.796875 C-10.80746094 423.63993164 -11.82195312 423.48298828 -12.8671875 423.32128906 C-13.95128906 423.15467773 -15.03539062 422.98806641 -16.15234375 422.81640625 C-25.0284084 421.40621491 -33.44432203 419.7345861 -41.90234375 416.62890625 C-42.00546875 417.74265625 -42.10859375 418.85640625 -42.21484375 420.00390625 C-42.55515625 421.79828125 -42.55515625 421.79828125 -42.90234375 423.62890625 C-46.67033117 426.14089786 -49.54441544 426.20754073 -53.90234375 425.62890625 C-57.30473532 424.63615266 -60.48525947 423.26840412 -63.71484375 421.81640625 C-64.6277417 421.41333252 -65.54063965 421.01025879 -66.48120117 420.5949707 C-85.83939774 411.8410742 -103.16314236 400.26839531 -118.64453125 385.734375 C-120.43428814 384.06538026 -122.23302431 382.51624958 -124.15234375 381.00390625 C-127.80441673 377.84984323 -130.80000037 374.31485878 -133.90234375 370.62890625 C-134.66675781 369.75234375 -135.43117188 368.87578125 -136.21875 367.97265625 C-142.81846987 360.28847536 -148.52714075 352.21029158 -153.90234375 343.62890625 C-154.26070313 343.05946289 -154.6190625 342.49001953 -154.98828125 341.90332031 C-159.42138915 334.76618325 -163.09141616 327.37458388 -166.46484375 319.69140625 C-166.82400879 318.89831055 -167.18317383 318.10521484 -167.55322266 317.28808594 C-169.64869152 312.33553995 -170.30170746 309.01266515 -168.90234375 303.62890625 C-167.20757723 301.08675647 -166.29263623 300.7142097 -163.29296875 300.05859375 C-162.5040625 299.91679687 -161.71515625 299.775 -160.90234375 299.62890625 C-161.24007812 298.58992188 -161.5778125 297.5509375 -161.92578125 296.48046875 C-164.35219121 288.92478947 -166.63720211 281.48411406 -167.90234375 273.62890625 C-168.56234375 274.61890625 -169.22234375 275.60890625 -169.90234375 276.62890625 C-171.64198511 278.97073115 -172.88365595 280.41720364 -175.80078125 281.0234375 C-179.2843961 281.19826575 -181.08644108 281.27087618 -183.91796875 279.04296875 C-186.34542294 276.08988472 -188.00739684 272.92793737 -189.65234375 269.50390625 C-189.96816406 268.87097656 -190.28398437 268.23804688 -190.609375 267.5859375 C-192.90234375 262.91066356 -192.90234375 262.91066356 -192.90234375 260.62890625 C-193.56234375 260.62890625 -194.22234375 260.62890625 -194.90234375 260.62890625 C-195.16015625 261.47839844 -195.41796875 262.32789063 -195.68359375 263.203125 C-196.97331581 266.82840142 -198.57631453 270.05628852 -200.40234375 273.44140625 C-201.01078125 274.58222656 -201.61921875 275.72304688 -202.24609375 276.8984375 C-203.90234375 279.62890625 -203.90234375 279.62890625 -205.90234375 280.62890625 C-213.04948527 281.20528863 -213.04948527 281.20528863 -216.03515625 279.1875 C-218.73514824 275.48772018 -219.18011269 271.84308385 -219.90234375 267.37890625 C-220.06186523 266.46447754 -220.22138672 265.55004883 -220.38574219 264.60791016 C-220.72574769 262.64442808 -221.0585159 260.6796817 -221.38476562 258.71386719 C-221.91245269 255.56865318 -222.47451058 252.43105054 -223.04296875 249.29296875 C-223.41390084 247.19681607 -223.78371791 245.10046573 -224.15234375 243.00390625 C-224.32765625 242.03420898 -224.50296875 241.06451172 -224.68359375 240.06542969 C-227.49990596 223.49120521 -227.49990596 223.49120521 -224.40234375 217.94140625 C-220.96106918 216.1347371 -217.69648484 215.62108752 -213.90234375 216.62890625 C-211.25012704 218.33985566 -210.12247056 219.88328453 -209.22900391 222.90966797 C-208.6456492 225.7037376 -208.16174567 228.4973414 -207.71484375 231.31640625 C-207.3910648 233.23749468 -207.06440021 235.15809976 -206.734375 237.078125 C-206.52905151 238.35175903 -206.52905151 238.35175903 -206.31958008 239.65112305 C-206.09190469 241.62131818 -206.09190469 241.62131818 -204.90234375 242.62890625 C-204.57621094 242.07460938 -204.25007813 241.5203125 -203.9140625 240.94921875 C-203.25857422 239.86253906 -203.25857422 239.86253906 -202.58984375 238.75390625 C-202.16058594 238.03460938 -201.73132813 237.3153125 -201.2890625 236.57421875 C-199.90234375 234.62890625 -199.90234375 234.62890625 -196.90234375 232.62890625 C-192.92058439 232.29003311 -190.27946188 232.47675482 -186.90234375 234.62890625 C-185.63671875 236.57421875 -185.63671875 236.57421875 -184.65234375 238.75390625 C-184.3171875 239.47835937 -183.98203125 240.2028125 -183.63671875 240.94921875 C-183.394375 241.50351562 -183.15203125 242.0578125 -182.90234375 242.62890625 C-181.04718609 236.50054355 -179.93300131 230.37290792 -178.87890625 224.0546875 C-177.82302437 220.35065387 -177.04569143 218.82258528 -173.90234375 216.62890625 C-171.15234375 216.37890625 -171.15234375 216.37890625 -168.90234375 216.62890625 C-168.79277344 215.6853125 -168.68320313 214.74171875 -168.5703125 213.76953125 C-167.55320856 205.53347008 -166.14023274 197.64054884 -163.90234375 189.62890625 C-165.01609375 189.21640625 -166.12984375 188.80390625 -167.27734375 188.37890625 C-169.56823294 187.37722191 -170.7573736 186.79803809 -172.40234375 184.87890625 C-173.79984358 178.590157 -170.91551639 172.54405924 -168.46484375 166.87890625 C-168.11139893 166.05543701 -167.7579541 165.23196777 -167.39379883 164.38354492 C-153.02798589 131.53091168 -130.78386706 101.07282018 -100.90234375 80.62890625 C-100.25974609 80.18498535 -99.61714844 79.74106445 -98.95507812 79.28369141 C-89.01892517 72.47897476 -78.8219266 66.69109297 -67.90234375 61.62890625 C-67.26603027 61.32549316 -66.6297168 61.02208008 -65.97412109 60.70947266 C-52.65326607 54.37873545 -52.65326607 54.37873545 -45.90234375 55.62890625 C-43.40234375 57.31640625 -43.40234375 57.31640625 -41.90234375 59.62890625 C-41.80859375 62.2734375 -41.80859375 62.2734375 -41.90234375 64.62890625 C-40.773125 64.24798828 -40.773125 64.24798828 -39.62109375 63.859375 C-33.21215469 61.78269208 -26.89721223 60.10612569 -20.27734375 58.87890625 C-19.59091797 58.75153076 -18.90449219 58.62415527 -18.19726562 58.49291992 C-15.38646983 57.99304385 -12.76351946 57.62890625 -9.90234375 57.62890625 C-9.9112262 56.97380066 -9.92010864 56.31869507 -9.92926025 55.64373779 C-10.01769425 48.83077716 -10.07806185 42.01797932 -10.12207031 35.20458984 C-10.14219647 32.66122822 -10.16950012 30.11791292 -10.20410156 27.57470703 C-10.25257345 23.92078221 -10.27530291 20.26746869 -10.29296875 16.61328125 C-10.31361389 15.47461609 -10.33425903 14.33595093 -10.35552979 13.16278076 C-10.35583191 12.10198303 -10.35613403 11.0411853 -10.35644531 9.94824219 C-10.36532776 9.01558533 -10.37421021 8.08292847 -10.38336182 7.12200928 C-9.26645451 1.33311033 -5.44945897 0.18417655 0 0 Z M6.09765625 36.62890625 C6.09765625 43.22890625 6.09765625 49.82890625 6.09765625 56.62890625 C10.38765625 56.62890625 14.67765625 56.62890625 19.09765625 56.62890625 C17.72357652 53.19370692 16.71873298 50.80793822 14.75 47.859375 C14.30978516 47.19873047 13.86957031 46.53808594 13.41601562 45.85742188 C12.96033203 45.18388672 12.50464844 44.51035156 12.03515625 43.81640625 C11.57560547 43.12353516 11.11605469 42.43066406 10.64257812 41.71679688 C9.49093403 40.00032293 8.29788481 38.3117664 7.09765625 36.62890625 C6.76765625 36.62890625 6.43765625 36.62890625 6.09765625 36.62890625 Z M5.09765625 455.62890625 C5.73832031 455.90605469 6.37898437 456.18320312 7.0390625 456.46875 C9.09765625 457.62890625 9.09765625 457.62890625 10.03515625 460.19140625 C10.38578125 460.99578125 10.73640625 461.80015625 11.09765625 462.62890625 C13.64540931 463.52276789 13.64540931 463.52276789 16.09765625 463.62890625 C16.42765625 461.97890625 16.75765625 460.32890625 17.09765625 458.62890625 C14.06240139 456.60540301 12.90339423 456.30766607 9.41015625 456.00390625 C8.60191406 455.92914063 7.79367188 455.854375 6.9609375 455.77734375 C6.34605469 455.72835938 5.73117188 455.679375 5.09765625 455.62890625 Z " fill="#A7D28B" transform="translate(241.90234375,15.37109375)"/>
<path d="M0 0 C4.14391045 0.86331468 5.3184885 2.34253152 8 5.625 C9.45719123 8.91201448 10.44424397 12.29847253 11.4375 15.75 C12.03896822 17.73830977 12.64053236 19.72659053 13.2421875 21.71484375 C13.53706055 22.70983887 13.83193359 23.70483398 14.13574219 24.72998047 C15.39282186 28.94084227 16.72758886 33.12581335 18.0625 37.3125 C18.55264415 38.86440632 19.0422285 40.41648956 19.53125 41.96875 C20.78554178 45.94626351 22.04233614 49.92298105 23.30004883 53.89941406 C24.04937374 56.27095664 24.79621753 58.64327098 25.54296875 61.015625 C26.5124911 64.09260672 27.49546441 67.16483435 28.48828125 70.234375 C28.83910767 71.32939331 28.83910767 71.32939331 29.19702148 72.4465332 C29.63592503 73.81634847 30.07916896 75.18478376 30.52758789 76.55151367 C31.56188399 79.79830403 32 82.16276658 32 85.625 C35.89604286 83.89807401 39.79171273 82.17031544 43.68676758 80.44116211 C46.98756214 78.97587709 50.28964947 77.51355644 53.5925293 76.05297852 C60.77668533 72.87127801 67.94991504 69.68158255 75.04296875 66.30078125 C76.53546143 65.59477783 76.53546143 65.59477783 78.05810547 64.87451172 C79.84156632 64.02498871 81.61849889 63.16156409 83.38720703 62.28173828 C88.33599514 59.93565366 91.5003245 59.10351617 97 60.625 C99.4375 62.3125 99.4375 62.3125 101 64.625 C101.3358532 68.87341502 100.82910332 71.7177794 98.97265625 75.52734375 C98.29058105 76.95941162 98.29058105 76.95941162 97.59472656 78.42041016 C97.0890918 79.4572998 96.58345703 80.49418945 96.0625 81.5625 C94.97107319 83.85869149 93.88413571 86.15702018 92.80078125 88.45703125 C92.36002762 89.39147064 92.36002762 89.39147064 91.91036987 90.3447876 C87.66694317 99.39462007 83.72666792 108.58078439 79.75 117.75 C78.97926535 119.52466572 78.20851375 121.29932408 77.43774414 123.07397461 C75.62228485 127.25640751 73.81013943 131.44026213 72 135.625 C76.62 136.615 81.24 137.605 86 138.625 C86.33 137.635 86.66 136.645 87 135.625 C90.2350985 133.46826767 91.11399211 133.42883258 94.78125 134.09765625 C99.93741142 135.32315236 104.95886666 137.00087367 110 138.625 C111.98166436 139.25944725 113.96344504 139.89353123 115.9453125 140.52734375 C119.23721396 141.5804743 122.52889245 142.63427244 125.81982422 143.69042969 C131.37076213 145.47080881 136.92477588 147.2346898 142.5 148.9375 C143.45648438 149.23269531 144.41296875 149.52789062 145.3984375 149.83203125 C147.14903691 150.36562236 148.90446132 150.88360698 150.6640625 151.38671875 C153.99409752 152.38572926 156.43143682 153.12535357 159.0625 155.4375 C160.32729751 158.3886942 160.39765675 160.44374603 160 163.625 C157.74114926 167.6553467 155.1676115 168.62332979 150.875 170.0625 C150.25955322 170.27148926 149.64410645 170.48047852 149.01000977 170.69580078 C143.65624282 172.48418534 138.23731796 174.05432508 132.81201172 175.60913086 C126.98641181 177.29241374 121.24341052 179.18130924 115.5 181.125 C108.48873117 183.49424654 101.46169744 185.72373306 94.34985352 187.77026367 C85.84874433 190.22369944 77.42792984 192.93287312 69 195.625 C69.781658 199.70229712 70.82827534 203.64113614 72 207.625 C73.051875 207.521875 74.10375 207.41875 75.1875 207.3125 C79 207.625 79 207.625 81.47314453 209.60986328 C84.51646683 213.24126719 86.3240518 216.8761219 88.2421875 221.1796875 C88.6148172 221.99946075 88.9874469 222.81923401 89.37136841 223.66384888 C90.15186101 225.3909457 90.92641018 227.12073944 91.6953125 228.85302734 C92.87234895 231.49405161 94.07938662 234.11988839 95.2890625 236.74609375 C96.0461331 238.43145637 96.80140317 240.11762918 97.5546875 241.8046875 C98.09668289 242.97377151 98.09668289 242.97377151 98.64962769 244.16647339 C100.77229807 249.03719144 101.45184862 252.30991342 100 257.625 C97.875 260.125 97.875 260.125 95 261.625 C90.10740225 261.26168469 86.21629519 260.07988937 81.78125 258.03515625 C80.61198975 257.50253174 79.44272949 256.96990723 78.23803711 256.42114258 C76.99200059 255.84331378 75.74598873 255.26543183 74.5 254.6875 C72.56245362 253.80087114 70.62343871 252.9175115 68.68431091 252.03434753 C67.37473796 251.43771099 66.0656259 250.84006178 64.75697327 250.2414093 C57.56884489 246.95706633 50.31664701 243.82366754 43.05859375 240.69750977 C42.18203125 240.31908936 41.30546875 239.94066895 40.40234375 239.55078125 C39.64429443 239.22505127 38.88624512 238.89932129 38.10522461 238.5637207 C36.03731425 237.64163844 34.02172795 236.64356625 32 235.625 C31.90996201 236.17090286 31.81992401 236.71680573 31.72715759 237.2792511 C30.26910309 245.32664062 27.81114358 253.02202187 25.31640625 260.79296875 C24.85525825 262.24152611 24.39448531 263.69020292 23.93406677 265.13899231 C22.97333173 268.15812131 22.00895498 271.17605351 21.04174805 274.19311523 C19.80735776 278.04421311 18.58087757 281.89777372 17.35694981 285.75220776 C16.40821076 288.73775239 15.45595031 291.72216446 14.50257683 294.70623207 C14.04917271 296.12639316 13.59668806 297.54684817 13.14517403 298.96761131 C12.51243312 300.95634065 11.87511507 302.94354702 11.23657227 304.93041992 C10.87620377 306.0571965 10.51583527 307.18397308 10.14454651 308.34489441 C6.79531924 317.94329779 6.79531924 317.94329779 4.25 320.125 C0.83036001 320.88492 -1.63127686 320.54374267 -5 319.625 C-7.66363142 315.9975643 -8.9681658 312.14295169 -10.32836914 307.88208008 C-10.54017319 307.2244165 -10.75197723 306.56675293 -10.97019958 305.88916016 C-11.66487557 303.7262598 -12.35026951 301.56054945 -13.03515625 299.39453125 C-13.51892122 297.8785085 -14.00309435 296.36261594 -14.48765564 294.84684753 C-15.5011549 291.67156391 -16.51013963 288.49489153 -17.51586914 285.31713867 C-18.79779546 281.26772328 -20.09013227 277.22172458 -21.38584232 273.17670155 C-22.38762664 270.04562931 -23.38412214 266.91289305 -24.37905693 263.77963829 C-24.85313239 262.28859697 -25.3287228 260.79803638 -25.80592537 259.30799294 C-28.306327 251.48948293 -30.6775843 243.74799763 -32 235.625 C-33.11745605 236.12837891 -34.23491211 236.63175781 -35.38623047 237.15039062 C-39.62430971 239.05936803 -43.86265616 240.96775156 -48.10107422 242.87597656 C-49.91820183 243.69417977 -51.73526167 244.51253353 -53.55224609 245.33105469 C-54.86249756 245.92128418 -54.86249756 245.92128418 -56.19921875 246.5234375 C-57.0731427 246.91716553 -57.94706665 247.31089355 -58.84747314 247.71655273 C-60.61267443 248.51061019 -62.37858732 249.30308761 -64.14520264 250.09399414 C-68.48510298 252.03718224 -72.81472665 253.99786373 -77.12597656 256.00390625 C-78.34512253 256.56410461 -78.34512253 256.56410461 -79.58889771 257.13562012 C-81.11252201 257.8359565 -82.63227936 258.54479528 -84.14718628 259.26379395 C-88.22343777 261.1232231 -91.42504233 262.26177676 -96 261.625 C-100.01895284 258.11910497 -100.01895284 258.11910497 -101 255.625 C-100.57097757 249.97155584 -98.9166994 245.56953364 -96.5703125 240.5078125 C-96.22370071 239.74090088 -95.87708893 238.97398926 -95.51997375 238.18383789 C-94.39638705 235.70213629 -93.26072816 233.22616523 -92.125 230.75 C-91.3506537 229.04455731 -90.5773026 227.33866242 -89.80493164 225.63232422 C-88.64404526 223.06820324 -87.4824767 220.50441612 -86.31745911 217.94216919 C-82.9655799 210.57001082 -79.68620105 203.16818059 -76.4375 195.75 C-75.97939941 194.70602051 -75.52129883 193.66204102 -75.04931641 192.58642578 C-74.03170388 190.26646145 -73.01516099 187.94603782 -72 185.625 C-72.61488281 185.49222656 -73.22976562 185.35945312 -73.86328125 185.22265625 C-74.67152344 185.04605469 -75.47976562 184.86945313 -76.3125 184.6875 C-77.11300781 184.51347656 -77.91351563 184.33945312 -78.73828125 184.16015625 C-81 183.625 -81 183.625 -84 182.625 C-84.28875 183.264375 -84.5775 183.90375 -84.875 184.5625 C-86 186.625 -86 186.625 -88 187.625 C-94.75708514 188.30162287 -100.46174522 186.13856856 -106.8125 184 C-108.47539062 183.45412231 -108.47539062 183.45412231 -110.171875 182.8972168 C-113.4517918 181.81773551 -116.72668084 180.72430634 -120 179.625 C-120.87317871 179.33222168 -121.74635742 179.03944336 -122.64599609 178.73779297 C-123.83249756 178.33971436 -123.83249756 178.33971436 -125.04296875 177.93359375 C-125.79457275 177.68150146 -126.54617676 177.42940918 -127.32055664 177.16967773 C-128.76181532 176.68549102 -130.20242146 176.19935711 -131.64233398 175.71118164 C-137.54505458 173.72680483 -143.50757713 171.97693588 -149.52148438 170.3605957 C-153.21981151 169.32641715 -156.25765612 168.38081977 -159 165.625 C-159.78515625 163.7578125 -159.78515625 163.7578125 -160.0625 161.75 C-160.17722656 161.09257812 -160.29195313 160.43515625 -160.41015625 159.7578125 C-159.71855467 156.16148431 -157.83049315 154.86506158 -155 152.625 C-151.91939521 151.23211558 -148.74556665 150.30739251 -145.5 149.375 C-144.54367676 149.08544434 -143.58735352 148.79588867 -142.60205078 148.49755859 C-140.51287 147.86510932 -138.42179127 147.23890409 -136.32910156 146.61816406 C-130.49591148 144.87796039 -124.68745144 143.05801431 -118.875 141.25 C-117.07059448 140.69179565 -117.07059448 140.69179565 -115.22973633 140.12231445 C-102.11921262 136.061794 -89.05722742 131.85352939 -76 127.625 C-79.67337654 118.46361535 -83.50070921 109.39592234 -87.62109375 100.42578125 C-88.21115707 99.13750931 -88.21115707 99.13750931 -88.81314087 97.82321167 C-90.43322096 94.29012005 -92.0559858 90.75841894 -93.6940918 87.23364258 C-94.90914798 84.61475365 -96.10992053 81.98970073 -97.30859375 79.36328125 C-97.6803624 78.57262772 -98.05213104 77.78197418 -98.43516541 76.96736145 C-100.35795551 72.72361368 -101.65690932 69.38395289 -101 64.625 C-98.72700081 61.5497658 -97.3094051 59.84323418 -93.46875 59.203125 C-88.35118645 59.82553138 -84.23383365 62.0157276 -79.625 64.25 C-77.50396361 65.25158186 -75.38148329 66.25010983 -73.2578125 67.24609375 C-72.10829102 67.7860498 -70.95876953 68.32600586 -69.77441406 68.88232422 C-62.74033658 72.15286446 -55.61244752 75.21735836 -48.5 78.3125 C-47.05416989 78.94280383 -45.60836847 79.57317346 -44.16259766 80.20361328 C-40.77603137 81.67963492 -37.38836308 83.15310699 -34 84.625 C-32.27554443 82.03831664 -31.40777633 80.22299599 -30.44921875 77.3359375 C-30.02382813 76.06073242 -30.02382813 76.06073242 -29.58984375 74.75976562 C-29.29207031 73.84904297 -28.99429688 72.93832031 -28.6875 72 C-28.37554687 71.05576172 -28.06359375 70.11152344 -27.7421875 69.13867188 C-25.67162385 62.82047044 -23.74511099 56.47275928 -21.91479492 50.08154297 C-20.00273499 43.47342663 -17.81007271 36.96731738 -15.59033203 30.45703125 C-14.15795872 26.22477056 -12.79373453 21.99861783 -11.6171875 17.6875 C-11.40513672 16.91599609 -11.19308594 16.14449219 -10.97460938 15.34960938 C-10.58856769 13.91735701 -10.2163312 12.48127527 -9.86132812 11.04101562 C-8.36205835 5.48424253 -5.88388976 1.22581037 0 0 Z " fill="#474B51" transform="translate(256,95.375)"/>
<path d="M0 0 C6.79511713 2.03726975 10.80478708 10.91267845 14.41015625 16.44140625 C15.05533203 17.42044922 15.70050781 18.39949219 16.36523438 19.40820312 C17.94801719 21.81168814 19.52527871 24.21860653 21.09765625 26.62890625 C21.10700195 25.9834082 21.11634766 25.33791016 21.12597656 24.67285156 C21.17974726 21.74076681 21.26337965 18.81026617 21.34765625 15.87890625 C21.36183594 14.863125 21.37601562 13.84734375 21.390625 12.80078125 C21.63689967 5.31403125 21.63689967 5.31403125 23.89453125 1.95703125 C26.20166627 0.56620517 27.42597915 0.0871613 30.09765625 0.12890625 C30.75765625 0.11859375 31.41765625 0.10828125 32.09765625 0.09765625 C35.01077536 0.87145351 36.19216093 2.32709723 38.09765625 4.62890625 C38.57867432 7.12200928 38.57867432 7.12200928 38.55175781 9.94824219 C38.55145569 11.00903992 38.55115356 12.06983765 38.55084229 13.16278076 C38.53019714 14.30144592 38.509552 15.44011108 38.48828125 16.61328125 C38.48262146 17.78401184 38.47696167 18.95474243 38.47113037 20.16094971 C38.4487375 23.90068425 38.39853305 27.63946122 38.34765625 31.37890625 C38.32759514 33.91404867 38.30934369 36.4492061 38.29296875 38.984375 C38.24886303 45.19954554 38.18192079 51.41415749 38.09765625 57.62890625 C38.68466812 57.68767944 39.27167999 57.74645264 39.8764801 57.80700684 C44.15314642 58.25491417 48.31291531 58.77469344 52.5 59.78515625 C53.40943359 60.00300781 54.31886719 60.22085938 55.25585938 60.4453125 C56.63161133 60.78369141 56.63161133 60.78369141 58.03515625 61.12890625 C59.45151367 61.46728516 59.45151367 61.46728516 60.89648438 61.8125 C67.81048999 63.48532312 67.81048999 63.48532312 70.09765625 64.62890625 C70.25234375 62.95828125 70.25234375 62.95828125 70.41015625 61.25390625 C70.75046875 59.45953125 70.75046875 59.45953125 71.09765625 57.62890625 C74.86394891 55.11804448 77.74164284 55.06402967 82.09765625 55.62890625 C85.43881487 56.57703391 88.55451381 57.90146098 91.72265625 59.31640625 C92.62636963 59.71359863 93.53008301 60.11079102 94.46118164 60.52001953 C110.60539895 67.8339129 125.65060381 77.0850742 139.09765625 88.62890625 C139.9484375 89.35207031 140.79921875 90.07523437 141.67578125 90.8203125 C144.20597053 93.0362686 146.6581856 95.31341467 149.09765625 97.62890625 C149.6179541 98.11665527 150.13825195 98.6044043 150.67431641 99.10693359 C172.32122476 119.51758932 194.21794118 149.12868805 201.09765625 178.62890625 C201.09765625 182.53185267 200.67065032 183.89784485 198.28515625 186.94140625 C196.08545528 188.63831843 194.75361616 189.06653319 192.09765625 189.62890625 C192.36320312 190.77746094 192.62875 191.92601562 192.90234375 193.109375 C193.25935181 194.67833146 193.6161089 196.24734503 193.97265625 197.81640625 C194.14667969 198.56599609 194.32070313 199.31558594 194.5 200.08789062 C197.47933992 213.27422841 198.5033223 225.96748853 198.47265625 239.44140625 C198.47244476 240.29929749 198.47223328 241.15718872 198.47201538 242.04107666 C198.43719122 256.22919936 197.40531615 269.78762176 194.09765625 283.62890625 C193.90510254 284.48742187 193.71254883 285.3459375 193.51416016 286.23046875 C192.95669634 288.66710259 192.35443199 291.08557903 191.72265625 293.50390625 C191.55032471 294.20692871 191.37799316 294.90995117 191.20043945 295.63427734 C190.63671875 297.55859375 190.63671875 297.55859375 189.09765625 300.62890625 C187.10918667 301.32921559 185.109025 301.9973683 183.09765625 302.62890625 C182.00592908 305.41312827 182.00592908 305.41312827 181.09765625 308.62890625 C180.28493702 310.48008177 179.44024337 312.31750349 178.56640625 314.140625 C178.08558594 315.14544922 177.60476563 316.15027344 177.109375 317.18554688 C176.61050781 318.21873047 176.11164063 319.25191406 175.59765625 320.31640625 C175.09878906 321.36119141 174.59992188 322.40597656 174.0859375 323.48242188 C168.7009901 334.69264078 168.7009901 334.69264078 163.07421875 336.75 C162.05199219 337.12833984 161.02976562 337.50667969 159.9765625 337.89648438 C158.90277344 338.28255859 157.82898438 338.66863281 156.72265625 339.06640625 C155.68753906 339.44861328 154.65242187 339.83082031 153.5859375 340.22460938 C115.98672251 354.01410976 77.00927229 357.16214266 38.09765625 346.62890625 C38.63211564 339.34971994 40.35183524 332.97308556 42.66015625 326.06640625 C42.98951172 325.05771484 43.31886719 324.04902344 43.65820312 323.00976562 C44.46362207 320.54681783 45.27687664 318.08676868 46.09765625 315.62890625 C49.42626669 316.34068151 52.34323324 317.53752056 55.4453125 318.9296875 C56.51297852 319.40704346 57.58064453 319.88439941 58.68066406 320.3762207 C59.82889648 320.89273193 60.97712891 321.40924316 62.16015625 321.94140625 C63.34577148 322.46887451 64.53138672 322.99634277 65.75292969 323.53979492 C71.44661776 326.07373672 77.12714625 328.63176654 82.77684021 331.26252747 C84.61625715 332.11757888 86.45878524 332.96551879 88.30249023 333.8112793 C90.62501703 334.87921618 92.94126405 335.96094254 95.25024414 337.05786133 C102.9620718 340.64907964 102.9620718 340.64907964 111.09765625 339.62890625 C113.26432292 338.12890625 113.26432292 338.12890625 114.09765625 335.62890625 C113.68334318 330.57038831 112.42741572 326.55465582 110.33203125 321.953125 C109.91911835 321.0380291 109.91911835 321.0380291 109.49786377 320.10444641 C108.62277866 318.17119243 107.73527262 316.24393323 106.84765625 314.31640625 C106.26745081 313.03615976 105.68801772 311.75556294 105.109375 310.47460938 C103.98584636 307.9946957 102.84799287 305.52228995 101.69506836 303.0559082 C100.68385205 300.88649917 99.69015677 298.70876245 98.72094727 296.52026367 C98.09724243 295.16251831 98.09724243 295.16251831 97.4609375 293.77734375 C97.11071533 292.99407715 96.76049316 292.21081055 96.3996582 291.40380859 C95.2074727 289.42281056 95.2074727 289.42281056 92.81494141 288.85473633 C91.27644355 288.66015869 89.73645516 288.47706907 88.1953125 288.3046875 C86.09765625 287.62890625 86.09765625 287.62890625 84.59375 285.671875 C83.17154083 282.60446219 82.047429 280.06090964 82.16748047 276.63818359 C83.09765625 274.62890625 83.09765625 274.62890625 85.85058594 273.3203125 C87.06133789 272.94777344 88.27208984 272.57523437 89.51953125 272.19140625 C90.17536194 271.98459229 90.83119263 271.77777832 91.50689697 271.56469727 C93.61595027 270.90366468 95.73128784 270.26608207 97.84765625 269.62890625 C99.22703699 269.2007444 100.6059498 268.77107195 101.984375 268.33984375 C105.37122756 267.28435772 108.76346694 266.24769 112.15826416 265.21807861 C115.15348972 264.30815218 118.14501231 263.38626349 121.13671875 262.46484375 C122.70292969 261.98289551 122.70292969 261.98289551 124.30078125 261.49121094 C129.83297397 259.78558029 135.35733197 258.05522477 140.88085938 256.32177734 C143.24843157 255.58178066 145.61826699 254.8493227 147.98828125 254.1171875 C160.33325645 250.60475161 160.33325645 250.60475161 172.09765625 245.62890625 C173.51807446 242.78806984 173.41217897 240.77413347 173.09765625 237.62890625 C170.09005951 233.7923865 166.99390149 232.62351692 162.41015625 231.19140625 C161.42329834 230.87792236 161.42329834 230.87792236 160.41650391 230.55810547 C154.93170065 228.83320268 149.40541037 227.24259071 143.88061523 225.65136719 C136.96176137 223.63809735 130.1385478 221.35555837 123.31591797 219.03955078 C113.89868787 215.32537355 113.89868787 215.32537355 104.09765625 214.62890625 C103.52015625 215.30953125 102.94265625 215.99015625 102.34765625 216.69140625 C100.09765625 218.62890625 100.09765625 218.62890625 98.0234375 218.7421875 C93.77247826 218.31357839 89.97198785 217.50358283 86.09765625 215.62890625 C86.76658242 210.7126651 88.77033162 206.55917349 90.81640625 202.09375 C91.38155945 200.84374962 91.38155945 200.84374962 91.95812988 199.5684967 C93.16642669 196.89888992 94.38186007 194.23260476 95.59765625 191.56640625 C96.38459882 189.83159979 97.17106144 188.09657552 97.95703125 186.36132812 C98.54073486 185.07387192 98.54073486 185.07387192 99.13623047 183.76040649 C99.92371811 182.0227492 100.71050084 180.28477227 101.49658203 178.54647827 C103.5367679 174.04129512 105.59924545 169.54845983 107.69921875 165.07080078 C108.11723755 164.16906631 108.53525635 163.26733185 108.96594238 162.33827209 C109.7616831 160.62209701 110.56613613 158.90992493 111.3807373 157.20262146 C113.36782919 152.88955055 114.79825816 149.48497618 114.09765625 144.62890625 C112.14679561 142.01799525 112.14679561 142.01799525 109.09765625 140.62890625 C104.20450439 140.98603092 100.31353296 142.17420981 95.87890625 144.21875 C94.709646 144.75145508 93.54038574 145.28416016 92.33569336 145.83300781 C91.72547333 146.11599731 91.1152533 146.39898682 90.48654175 146.69055176 C87.92417417 147.87869215 85.35282859 149.04678133 82.78196716 150.21640015 C81.47237889 150.81254452 80.16326684 151.40973611 78.85462952 152.00796509 C72.60923259 154.86200207 66.33036565 157.63650456 60.03515625 160.37890625 C59.08511719 160.79648193 58.13507813 161.21405762 57.15625 161.64428711 C56.2796875 162.02593018 55.403125 162.40757324 54.5 162.80078125 C53.74195068 163.13174805 52.98390137 163.46271484 52.20288086 163.80371094 C50.18297162 164.59546476 48.21260784 165.15592345 46.09765625 165.62890625 C45.92226318 165.04214111 45.74687012 164.45537598 45.56616211 163.85083008 C42.34501099 153.10218165 39.06894868 142.38369955 35.47265625 131.75390625 C33.38347612 125.57817272 31.39521935 119.39582431 29.59765625 113.12890625 C27.6678143 106.44650472 25.61684031 99.80825937 23.47265625 93.19140625 C23.03856445 91.81275391 23.03856445 91.81275391 22.59570312 90.40625 C22.31533203 89.55289063 22.03496094 88.69953125 21.74609375 87.8203125 C21.37750244 86.67864624 21.37750244 86.67864624 21.00146484 85.51391602 C20.12774823 83.28031216 20.12774823 83.28031216 17.09765625 81.62890625 C13.77524243 81.20476832 11.89819272 81.06521489 9.1171875 83.0234375 C6.1334707 86.87283615 5.0852521 91.05842189 3.72265625 95.69140625 C3.11202214 97.68881522 2.50134431 99.68621083 1.890625 101.68359375 C1.58946777 102.68487305 1.28831055 103.68615234 0.97802734 104.71777344 C-0.29589511 108.93026687 -1.63040852 113.12278238 -2.96484375 117.31640625 C-3.45619653 118.87224831 -3.94708296 120.42823773 -4.4375 121.984375 C-5.42387258 125.11217101 -6.41080425 128.23978931 -7.3984375 131.3671875 C-7.77101685 132.54752563 -7.77101685 132.54752563 -8.15112305 133.75170898 C-8.6477132 135.32314165 -9.14525537 136.89427382 -9.64379883 138.46508789 C-10.96740189 142.64033134 -12.26904633 146.82102597 -13.54296875 151.01171875 C-13.81238281 151.88892578 -14.08179688 152.76613281 -14.359375 153.66992188 C-14.87864537 155.36202706 -15.39190331 157.05599181 -15.8984375 158.75195312 C-16.50877567 160.72965112 -17.19843206 162.68254802 -17.90234375 164.62890625 C-19.90234375 165.62890625 -19.90234375 165.62890625 -21.77720642 165.02352905 C-22.91990746 164.50987289 -22.91990746 164.50987289 -24.08569336 163.98583984 C-25.38361061 163.40931168 -25.38361061 163.40931168 -26.70774841 162.82113647 C-27.64723831 162.39418488 -28.58672821 161.96723328 -29.5546875 161.52734375 C-30.52459122 161.09386627 -31.49449493 160.66038879 -32.49378967 160.21377563 C-35.61249072 158.81782124 -38.72615016 157.41098926 -41.83984375 156.00390625 C-43.90527972 155.077413 -45.97103139 154.15162317 -48.03710938 153.2265625 C-51.87816685 151.50477735 -55.71769271 149.77970187 -59.55444336 148.04833984 C-60.43059296 147.65588074 -61.30674255 147.26342163 -62.20944214 146.85906982 C-64.08855012 146.00066112 -65.95580407 145.11603116 -67.81326294 144.21173096 C-69.24483231 143.52418732 -69.24483231 143.52418732 -70.70532227 142.82275391 C-71.55876724 142.40289215 -72.41221222 141.9830304 -73.29151917 141.55044556 C-77.44017478 140.08610006 -80.7604229 140.24826597 -84.90234375 141.62890625 C-86.32592755 149.13405132 -85.36205437 153.37788734 -82.0546875 160.16796875 C-81.64577774 161.05189301 -81.23686798 161.93581726 -80.81556702 162.8465271 C-79.51002364 165.65870257 -78.17628373 168.45630157 -76.83984375 171.25390625 C-75.1128012 174.93033803 -73.39668204 178.6118362 -71.6796875 182.29296875 C-71.26431732 183.17752747 -70.84894714 184.06208618 -70.42098999 184.97344971 C-66.94515248 192.41511063 -63.82457602 199.95332431 -60.90234375 207.62890625 C-66.19748031 209.9274614 -71.49567598 211.96902264 -76.96484375 213.81640625 C-78.12983398 214.22536133 -78.12983398 214.22536133 -79.31835938 214.64257812 C-83.65902477 216.1090688 -87.25494824 216.96351873 -91.90234375 216.62890625 C-92.73128274 213.23687875 -93.53724133 209.83975313 -94.33984375 206.44140625 C-94.68499023 205.03084961 -94.68499023 205.03084961 -95.03710938 203.59179688 C-103.75119944 166.33590458 -97.79197829 122.73206934 -80 88.8671875 C-74.31157699 80.08561828 -61.41658432 76.55426891 -52.02563477 72.91259766 C-46.90302842 70.84549027 -44.5279539 69.64747755 -41.90234375 64.62890625 C-33.06485987 60.31074265 -19.83976693 57.62890625 -9.90234375 57.62890625 C-9.9112262 56.97380066 -9.92010864 56.31869507 -9.92926025 55.64373779 C-10.01769425 48.83077716 -10.07806185 42.01797932 -10.12207031 35.20458984 C-10.14219647 32.66122822 -10.16950012 30.11791292 -10.20410156 27.57470703 C-10.25257345 23.92078221 -10.27530291 20.26746869 -10.29296875 16.61328125 C-10.31361389 15.47461609 -10.33425903 14.33595093 -10.35552979 13.16278076 C-10.35598297 11.57158417 -10.35598297 11.57158417 -10.35644531 9.94824219 C-10.36532776 9.01558533 -10.37421021 8.08292847 -10.38336182 7.12200928 C-9.26645451 1.33311033 -5.44945897 0.18417655 0 0 Z M6.09765625 36.62890625 C6.09765625 43.22890625 6.09765625 49.82890625 6.09765625 56.62890625 C10.38765625 56.62890625 14.67765625 56.62890625 19.09765625 56.62890625 C17.72357652 53.19370692 16.71873298 50.80793822 14.75 47.859375 C14.30978516 47.19873047 13.86957031 46.53808594 13.41601562 45.85742188 C12.96033203 45.18388672 12.50464844 44.51035156 12.03515625 43.81640625 C11.57560547 43.12353516 11.11605469 42.43066406 10.64257812 41.71679688 C9.49093403 40.00032293 8.29788481 38.3117664 7.09765625 36.62890625 C6.76765625 36.62890625 6.43765625 36.62890625 6.09765625 36.62890625 Z " fill="#C4E89A" transform="translate(241.90234375,15.37109375)"/>
<path d="M0 0 C3.34198344 0.94502184 6.45697848 2.27260873 9.625 3.6875 C10.52871338 4.08469238 11.43242676 4.48188477 12.36352539 4.89111328 C28.5077427 12.20500665 43.55294756 21.45616795 57 33 C57.85078125 33.72316406 58.7015625 34.44632813 59.578125 35.19140625 C62.10831428 37.40736235 64.56052935 39.68450842 67 42 C67.52029785 42.48774902 68.0405957 42.97549805 68.57666016 43.47802734 C90.22356851 63.88868307 112.12028493 93.4997818 119 123 C119 126.81091002 118.50114806 128.26755284 116.375 131.375 C113.0464384 133.65243688 110.9491615 133.56416593 107 133 C102.36576126 129.6237582 100.86890346 124.44823347 98.8125 119.3125 C87.25459851 91.56208114 70.3079941 65.04846242 46.1875 46.5 C45.57567871 46.02643066 44.96385742 45.55286133 44.33349609 45.06494141 C42.56191268 43.70150552 40.78304507 42.34839841 39 41 C38.15308594 40.35804687 37.30617188 39.71609375 36.43359375 39.0546875 C24.55541575 30.41235833 11.33060255 24.04215476 -2 18 C-9.68772179 14.46841732 -9.68772179 14.46841732 -12 11 C-12.41857482 7.16306413 -12.54644269 4.88796936 -10.5 1.5625 C-7.02831211 -0.60730493 -3.94752977 -0.48143689 0 0 Z " fill="#464B51" transform="translate(324,71)"/>
<path d="M0 0 C2.5625 1.4375 2.5625 1.4375 4 4 C4.22188196 7.15186162 4.05601393 10.01346062 3 13 C-0.38896229 16.46737015 -5.26233029 17.81824671 -9.6875 19.5625 C-30.46633938 28.05723203 -48.40908254 41.03585787 -65 56 C-65.74894531 56.67546875 -66.49789062 57.3509375 -67.26953125 58.046875 C-86.26908275 76.15642714 -100.85705584 101.37104385 -109.71948242 125.84716797 C-111.53688797 130.66778708 -111.53688797 130.66778708 -114.00390625 132.4375 C-117.74680594 133.4922506 -120.75378287 133.57258625 -124.3125 131.9375 C-126.84614231 129.02850327 -126.81406659 126.83629949 -127 123 C-126.24833378 119.81271361 -125.0345634 116.88174167 -123.75 113.875 C-123.39010986 113.0097168 -123.03021973 112.14443359 -122.65942383 111.25292969 C-108.26428451 77.44427374 -85.63307677 45.95810105 -55 25 C-54.35740234 24.5560791 -53.71480469 24.1121582 -53.05273438 23.65478516 C-43.11658142 16.85006851 -32.91958285 11.06218672 -22 6 C-21.36368652 5.69658691 -20.72737305 5.39317383 -20.07177734 5.08056641 C-6.75092232 -1.2501708 -6.75092232 -1.2501708 0 0 Z " fill="#464A51" transform="translate(196,71)"/>
<path d="M0 0 C2.9660179 2.39807739 4.21861817 5.23769802 5.78515625 8.671875 C6.31077148 9.80431641 6.83638672 10.93675781 7.37792969 12.10351562 C7.65262085 12.69946533 7.92731201 13.29541504 8.21032715 13.90942383 C17.39544069 33.74800598 29.10143354 49.93618253 44 66 C44.53753906 66.59167969 45.07507813 67.18335938 45.62890625 67.79296875 C60.62946922 83.62063043 80.53429806 95.46233496 100.4609375 103.91015625 C101.18933838 104.21993408 101.91773926 104.52971191 102.66821289 104.84887695 C104.06068124 105.43405294 105.45814357 106.00753415 106.86108398 106.56713867 C110.59283459 108.11626631 113.06314719 109.37892735 115 113 C115.48505011 116.88040089 115.56851618 119.0761612 113.5 122.4375 C110.02551802 124.60905123 106.95006281 124.49407215 103 124 C99.59675412 123.01035018 96.41697338 121.63944802 93.1875 120.1875 C91.81815308 119.5828894 91.81815308 119.5828894 90.42114258 118.96606445 C71.06294601 110.21216795 53.73920139 98.63948906 38.2578125 84.10546875 C36.46805561 82.43647401 34.66931944 80.88734333 32.75 79.375 C29.09792702 76.22093698 26.10234338 72.68595253 23 69 C22.23558594 68.1234375 21.47117188 67.246875 20.68359375 66.34375 C14.08387388 58.65956911 8.375203 50.58138533 3 42 C2.64164063 41.43055664 2.28328125 40.86111328 1.9140625 40.27441406 C-2.5190454 33.137277 -6.18907241 25.74567763 -9.5625 18.0625 C-10.10124756 16.87285645 -10.10124756 16.87285645 -10.65087891 15.65917969 C-12.74471853 10.71048435 -13.41172391 7.37832376 -12 2 C-8.53878332 -2.71984092 -5.01001853 -2.08750772 0 0 Z " fill="#464A51" transform="translate(85,317)"/>
<path d="M0 0 C2.375 1.0625 2.375 1.0625 4 3 C5.8079803 9.55286755 3.99072624 13.76750064 1.3125 19.6875 C0.90894287 20.60015625 0.50538574 21.5128125 0.08959961 22.453125 C-8.22942269 40.7282652 -19.32122353 56.98906341 -32.9140625 71.7265625 C-34.8522255 73.8389424 -36.71023271 75.99998072 -38.5625 78.1875 C-42.07766122 82.19685622 -45.89183711 85.60913539 -50 89 C-50.50499023 89.42796875 -51.00998047 89.8559375 -51.53027344 90.296875 C-65.99655706 102.53563674 -81.84811361 112.0105645 -99 120 C-100.67449219 120.79277344 -100.67449219 120.79277344 -102.3828125 121.6015625 C-108.13026795 124.17999489 -112.68754302 126.01450201 -119 125 C-121.5 123.4375 -121.5 123.4375 -123 121 C-123.5625 117.5625 -123.5625 117.5625 -123 114 C-119.22121956 109.34413319 -115.14440041 107.44227136 -109.75 105.25 C-65.80699324 86.47239421 -34.14364786 54.23233094 -14.32666016 10.91333008 C-13.54621338 9.22566528 -13.54621338 9.22566528 -12.75 7.50390625 C-12.29109375 6.49142822 -11.8321875 5.4789502 -11.359375 4.43579102 C-8.59447933 -0.51847697 -5.23915278 -0.45957481 0 0 Z " fill="#464A51" transform="translate(435,316)"/>
<path d="M0 0 C2.65221671 1.71094941 3.77987319 3.25437828 4.67333984 6.28076172 C5.25669455 9.07483135 5.74059808 11.86843515 6.1875 14.6875 C6.51127895 16.60858843 6.83794354 18.52919351 7.16796875 20.44921875 C7.37329224 21.72285278 7.37329224 21.72285278 7.58276367 23.0222168 C7.81043906 24.99241193 7.81043906 24.99241193 9 26 C9.48919922 25.16855469 9.48919922 25.16855469 9.98828125 24.3203125 C10.42527344 23.59585938 10.86226562 22.87140625 11.3125 22.125 C11.74175781 21.40570313 12.17101562 20.68640625 12.61328125 19.9453125 C14 18 14 18 17 16 C20.98175936 15.66112686 23.62288187 15.84784857 27 18 C28.265625 19.9453125 28.265625 19.9453125 29.25 22.125 C29.58515625 22.84945312 29.9203125 23.57390625 30.265625 24.3203125 C30.50796875 24.87460937 30.7503125 25.42890625 31 26 C32.85515766 19.8716373 33.96934244 13.74400167 35.0234375 7.42578125 C36.07666269 3.73106728 36.87941713 2.20506303 40 0 C43.14290625 -0.43575823 45.96556558 0.11495663 49 1 C51.0625 2.625 51.0625 2.625 52 5 C52.51082935 11.93956847 50.91989839 18.58379636 49.625 25.375 C47.86824002 34.80095124 46.3590721 44.12516802 45.5546875 53.6796875 C44.95111845 57.2926008 43.87957781 59.86737031 42 63 C38.87057535 64.56471233 35.38917777 64.69701958 32 64 C28.19487493 61.03964208 26.29757652 57.1371228 24.25 52.875 C23.77626953 51.92560547 23.77626953 51.92560547 23.29296875 50.95703125 C21 46.28175731 21 46.28175731 21 44 C20.34 44 19.68 44 19 44 C18.7421875 44.84949219 18.484375 45.69898438 18.21875 46.57421875 C16.92902794 50.19949517 15.32602922 53.42738227 13.5 56.8125 C12.8915625 57.95332031 12.283125 59.09414063 11.65625 60.26953125 C10 63 10 63 8 64 C0.85285848 64.57638238 0.85285848 64.57638238 -2.1328125 62.55859375 C-4.83280449 58.85881393 -5.27776894 55.2141776 -6 50.75 C-6.15952148 49.83557129 -6.31904297 48.92114258 -6.48339844 47.97900391 C-6.82340394 46.01552183 -7.15617215 44.05077545 -7.48242188 42.08496094 C-8.01010894 38.93974693 -8.57216683 35.80214429 -9.140625 32.6640625 C-9.51155709 30.56790982 -9.88137416 28.47155948 -10.25 26.375 C-10.4253125 25.40530273 -10.600625 24.43560547 -10.78125 23.43652344 C-13.59756221 6.86229896 -13.59756221 6.86229896 -10.5 1.3125 C-7.05872543 -0.49416915 -3.79414109 -1.00781873 0 0 Z " fill="#464A51" transform="translate(28,232)"/>
<path d="M0 0 C6.79511713 2.03726975 10.80478708 10.91267845 14.41015625 16.44140625 C15.37791992 17.9099707 15.37791992 17.9099707 16.36523438 19.40820312 C17.94801719 21.81168814 19.52527871 24.21860653 21.09765625 26.62890625 C21.10700195 25.9834082 21.11634766 25.33791016 21.12597656 24.67285156 C21.17974726 21.74076681 21.26337965 18.81026617 21.34765625 15.87890625 C21.36892578 14.35523438 21.36892578 14.35523438 21.390625 12.80078125 C21.63689967 5.31403125 21.63689967 5.31403125 23.89453125 1.95703125 C26.20166627 0.56620517 27.42597915 0.0871613 30.09765625 0.12890625 C30.75765625 0.11859375 31.41765625 0.10828125 32.09765625 0.09765625 C35.01044521 0.87136582 36.19087237 2.32835742 38.09765625 4.62890625 C38.59886169 7.12632751 38.59886169 7.12632751 38.59936523 9.96069336 C38.60874619 11.02537338 38.61812714 12.09005341 38.62779236 13.18699646 C38.61655838 14.33185013 38.6053244 15.4767038 38.59375 16.65625 C38.59520523 17.83731827 38.59666046 19.01838654 38.59815979 20.23524475 C38.59650001 22.7326199 38.58493005 25.23000519 38.56420898 27.72729492 C38.53529208 31.54845707 38.54359218 35.36822898 38.55664062 39.18945312 C38.55040212 41.61589216 38.54201031 44.04232681 38.53125 46.46875 C38.53418564 47.61157944 38.53712128 48.75440887 38.54014587 49.93186951 C38.5274617 50.99970169 38.51477753 52.06753387 38.50170898 53.16772461 C38.496306 54.10386093 38.49090302 55.03999725 38.4853363 56.00450134 C38.01981502 59.15585341 36.94956183 61.05761888 35.09765625 63.62890625 C32.20903916 65.0732148 30.30117924 65.00579131 27.09765625 64.62890625 C23.99600856 62.0786626 22.37199209 60.45191378 21.09765625 56.62890625 C20.43765625 56.62890625 19.77765625 56.62890625 19.09765625 56.62890625 C17.76904297 54.9765625 17.76904297 54.9765625 16.27734375 52.69140625 C15.74238281 51.87929687 15.20742188 51.0671875 14.65625 50.23046875 C14.10066406 49.37195313 13.54507813 48.5134375 12.97265625 47.62890625 C12.40933594 46.77039062 11.84601563 45.911875 11.265625 45.02734375 C9.87005376 42.89850627 8.4811007 40.76563651 7.09765625 38.62890625 C7.08307373 39.20858154 7.06849121 39.78825684 7.0534668 40.38549805 C6.97867097 43.02978178 6.88211727 45.67284627 6.78515625 48.31640625 C6.76259766 49.22841797 6.74003906 50.14042969 6.71679688 51.08007812 C6.52001114 55.99972157 6.35978269 59.67408135 3.09765625 63.62890625 C0.28850151 65.03348362 -1.79044909 64.87785782 -4.90234375 64.62890625 C-8.03825945 62.8490622 -8.74337111 62.10582418 -9.90234375 58.62890625 C-10.00991111 56.88651584 -10.0610759 55.1403874 -10.0793457 53.39477539 C-10.09218094 52.32679214 -10.10501617 51.2588089 -10.11824036 50.15846252 C-10.12562729 49.00531052 -10.13301422 47.85215851 -10.140625 46.6640625 C-10.14869675 45.47920761 -10.15676849 44.29435272 -10.16508484 43.07359314 C-10.1789208 40.56608543 -10.18964513 38.05855893 -10.19750977 35.55102539 C-10.21475984 31.71008937 -10.25865623 27.87000572 -10.30273438 24.02929688 C-10.31285797 21.59505842 -10.32137511 19.16081265 -10.328125 16.7265625 C-10.34563309 15.57543472 -10.36314117 14.42430695 -10.38117981 13.23829651 C-10.37825424 12.1671611 -10.37532867 11.0960257 -10.37231445 9.99243164 C-10.37818069 9.0510585 -10.38404694 8.10968536 -10.39009094 7.13978577 C-9.26368706 1.34115794 -5.46840605 0.1848169 0 0 Z " fill="#464A51" transform="translate(241.90234375,15.37109375)"/>
<path d="M0 0 C1.18142578 -0.01891296 1.18142578 -0.01891296 2.38671875 -0.03820801 C3.22847656 -0.03011108 4.07023437 -0.02201416 4.9375 -0.01367188 C5.81019531 -0.01749878 6.68289063 -0.02132568 7.58203125 -0.02526855 C9.42449092 -0.02798678 11.26698924 -0.02063182 13.109375 -0.00390625 C15.92795934 0.01750565 18.74399485 -0.00370989 21.5625 -0.02929688 C23.35417229 -0.02665358 25.14584299 -0.02152857 26.9375 -0.01367188 C27.77925781 -0.0217688 28.62101562 -0.02986572 29.48828125 -0.03820801 C35.32465618 0.05522414 35.32465618 0.05522414 38.46679688 2.42578125 C40.05894695 4.69031343 40.480297 5.77856983 40.4375 8.51757812 C40.4478125 9.17757812 40.458125 9.83757812 40.46875 10.51757812 C39.68352769 13.47370916 38.31244875 14.61742373 35.9375 16.51757812 C32.91308594 16.97167969 32.91308594 16.97167969 29.421875 16.90820312 C28.17148437 16.8953125 26.92109375 16.88242188 25.6328125 16.86914062 C23.67988281 16.81886719 23.67988281 16.81886719 21.6875 16.76757812 C20.37007813 16.74953125 19.05265625 16.73148438 17.6953125 16.71289062 C14.44197692 16.66574083 11.19010375 16.59993856 7.9375 16.51757812 C7.9375 19.15757812 7.9375 21.79757813 7.9375 24.51757812 C8.75734375 24.47117188 9.5771875 24.42476562 10.421875 24.37695312 C12.03835938 24.3228125 12.03835938 24.3228125 13.6875 24.26757812 C15.28851563 24.19796875 15.28851563 24.19796875 16.921875 24.12695312 C19.9375 24.51757812 19.9375 24.51757812 22.296875 26.28320312 C24.02773982 28.64047617 24.48242653 29.64228019 24.4375 32.51757812 C24.4478125 33.17757812 24.458125 33.83757812 24.46875 34.51757812 C23.67672269 37.49932799 22.39076814 38.68168872 19.9375 40.51757812 C16.921875 40.90820312 16.921875 40.90820312 13.6875 40.76757812 C12.60984375 40.73148437 11.5321875 40.69539063 10.421875 40.65820312 C9.60203125 40.61179687 8.7821875 40.56539063 7.9375 40.51757812 C7.9375 43.15757812 7.9375 45.79757812 7.9375 48.51757812 C8.76475586 48.49663086 9.59201172 48.47568359 10.44433594 48.45410156 C14.1919337 48.37096193 17.93933749 48.31892282 21.6875 48.26757812 C22.98945313 48.2340625 24.29140625 48.20054687 25.6328125 48.16601562 C26.88320313 48.153125 28.13359375 48.14023437 29.421875 48.12695312 C31.15002441 48.09553223 31.15002441 48.09553223 32.91308594 48.06347656 C36.56896493 48.61238962 37.70543862 49.63399612 39.9375 52.51757812 C40.46875 54.51757812 40.46875 54.51757812 40.4375 56.51757812 C40.4478125 57.17757812 40.458125 57.83757812 40.46875 58.51757812 C39.65761424 61.57126568 38.46769712 62.60869582 35.9375 64.51757812 C32.94013779 65.11872366 29.98640723 65.07815576 26.9375 65.04882812 C26.06480469 65.05265503 25.19210937 65.05648193 24.29296875 65.0604248 C22.45050908 65.06314303 20.60801076 65.05578807 18.765625 65.0390625 C15.94704066 65.0176506 13.13100515 65.03886614 10.3125 65.06445312 C8.52082771 65.06180983 6.72915701 65.05668482 4.9375 65.04882812 C3.67486328 65.06097351 3.67486328 65.06097351 2.38671875 65.07336426 C1.20529297 65.05445129 1.20529297 65.05445129 0 65.03515625 C-0.68964844 65.03197388 -1.37929688 65.0287915 -2.08984375 65.0255127 C-5.03386907 64.26746261 -6.22822175 62.90356255 -8.0625 60.51757812 C-8.57043457 57.9375 -8.57043457 57.9375 -8.58007812 54.98632812 C-8.59268677 53.87837891 -8.60529541 52.77042969 -8.61828613 51.62890625 C-8.61018921 50.43716797 -8.60209229 49.24542969 -8.59375 48.01757812 C-8.5975769 46.78974609 -8.60140381 45.56191406 -8.60534668 44.296875 C-8.60806842 41.70116353 -8.60068911 39.10542476 -8.58398438 36.50976562 C-8.56258075 32.53258213 -8.58377963 28.55720531 -8.609375 24.58007812 C-8.60673177 22.0592408 -8.60160691 19.53840459 -8.59375 17.01757812 C-8.60184692 15.82583984 -8.60994385 14.63410156 -8.61828613 13.40625 C-8.60567749 12.29830078 -8.59306885 11.19035156 -8.58007812 10.04882812 C-8.57689575 9.07494141 -8.57371338 8.10105469 -8.57043457 7.09765625 C-7.63926889 2.36775532 -4.76089892 0.0219691 0 0 Z " fill="#464951" transform="translate(456.0625,223.482421875)"/>
<path d="M0 0 C4.92663547 2.81807546 8.71986417 6.73339345 10.75 12.0625 C10.75 15.95285236 9.65738994 18.39051161 7.125 21.3125 C3.59223798 22.98591359 0.35838648 22.69745313 -3.25 21.4375 C-5.5 18.875 -5.5 18.875 -7.25 16.4375 C-8.57 16.4375 -9.89 16.4375 -11.25 16.4375 C-11.25 17.7575 -11.25 19.0775 -11.25 20.4375 C-10.18072266 20.67533203 -10.18072266 20.67533203 -9.08984375 20.91796875 C-1.12885146 22.85732219 3.99192261 25.04294321 9.1875 31.4375 C12.1403201 37.27922635 11.76185912 44.69541746 10.08984375 50.87890625 C7.9036701 55.86641064 4.4992696 58.87002943 -0.25 61.4375 C-6.17924737 63.41391579 -13.12084379 63.69816725 -18.96484375 61.34375 C-24.00640838 58.18962637 -26.99350041 54.93158596 -29.25 49.4375 C-29.61086648 46.37013488 -29.45058298 44.21754494 -28.6875 41.25 C-26.42783904 38.40086227 -23.63037896 37.68949221 -20.25 36.4375 C-20.9925 35.9425 -21.735 35.4475 -22.5 34.9375 C-26.92356049 30.91608137 -28.91432901 27.21441455 -29.63671875 21.23828125 C-29.79872803 16.33889702 -29.72392069 12.52356824 -27.75 8 C-20.02367642 0.08051833 -11.00138911 -4.96016388 0 0 Z M-18.25 37.4375 C-17.60933594 37.71464844 -16.96867188 37.99179687 -16.30859375 38.27734375 C-14.25 39.4375 -14.25 39.4375 -13.3125 42 C-12.961875 42.804375 -12.61125 43.60875 -12.25 44.4375 C-9.70224694 45.33136164 -9.70224694 45.33136164 -7.25 45.4375 C-6.92 43.7875 -6.59 42.1375 -6.25 40.4375 C-9.28525486 38.41399676 -10.44426202 38.11625982 -13.9375 37.8125 C-14.74574219 37.73773438 -15.55398437 37.66296875 -16.38671875 37.5859375 C-17.00160156 37.53695312 -17.61648437 37.48796875 -18.25 37.4375 Z " fill="#464A51" transform="translate(265.25,433.5625)"/>
<path d="M0 0 C1.89535656 2.84303484 2.77089132 4.9974593 3.8034668 8.21826172 C4.14689621 9.28301727 4.49032562 10.34777283 4.84416199 11.4447937 C5.20883072 12.59480865 5.57349945 13.74482361 5.94921875 14.9296875 C6.51453056 16.70341232 6.51453056 16.70341232 7.09126282 18.51296997 C7.88646098 21.01546502 8.67896747 23.51881674 9.46899414 26.02294922 C10.27909542 28.5898986 11.09694725 31.15416456 11.92211914 33.71630859 C13.10949476 37.40883539 14.28125505 41.10598116 15.44921875 44.8046875 C15.81996017 45.95065399 16.1907016 47.09662048 16.57267761 48.27731323 C16.90665054 49.34837311 17.24062347 50.41943298 17.5847168 51.52294922 C17.88290817 52.46210175 18.18109955 53.40125427 18.48832703 54.36886597 C19.0621277 57.31947418 18.90216826 59.14359707 18 62 C16.21079388 64.14065732 14.4623219 66.02827019 12.46875 67.95703125 C11.9176355 68.50485764 11.366521 69.05268402 10.79870605 69.61711121 C9.63654352 70.76887746 8.46963792 71.91587507 7.29833984 73.05834961 C5.49753757 74.81490192 3.71059092 76.58463525 1.92578125 78.35742188 C0.79504447 79.47474181 -0.33644018 80.5913055 -1.46875 81.70703125 C-2.27656921 82.50377007 -2.27656921 82.50377007 -3.10070801 83.31660461 C-6.88170696 87 -6.88170696 87 -8 87 C-8 79.41 -8 71.82 -8 64 C-6.02 63.01 -4.04 62.02 -2 61 C-0.95873076 57.87619227 -0.84447668 55.61482146 -0.79467773 52.33520508 C-0.77473251 51.17422806 -0.75478729 50.01325104 -0.73423767 48.8170929 C-0.71752518 47.56389755 -0.70081268 46.31070221 -0.68359375 45.01953125 C-0.66281265 43.73640549 -0.64203156 42.45327972 -0.62062073 41.13127136 C-0.56548094 37.72337185 -0.51603611 34.31541259 -0.46777344 30.90740967 C-0.41749921 27.42845352 -0.36184409 23.94958393 -0.30664062 20.47070312 C-0.19915811 13.64721049 -0.09769123 6.82363964 0 0 Z " fill="#A1D7FB" transform="translate(264,157)"/>
<path d="M0 0 C0.33 0 0.66 0 1 0 C1.00879936 1.07328804 1.00879936 1.07328804 1.01777649 2.16825867 C1.07575464 8.92162426 1.14786036 15.67467535 1.23571491 22.42772198 C1.28038373 25.89930066 1.31964707 29.37076294 1.34643555 32.8425293 C1.37749455 36.8367256 1.43228188 40.83029368 1.48828125 44.82421875 C1.49467117 46.06709152 1.5010611 47.30996429 1.50764465 48.59049988 C1.52743881 49.75132584 1.54723297 50.91215179 1.56762695 52.1081543 C1.57873001 53.12741501 1.58983307 54.14667572 1.60127258 55.19682312 C2.0711658 58.50031753 2.94264355 60.37989824 5 63 C6.32 63.33 7.64 63.66 9 64 C9 71.59 9 79.18 9 87 C2.97278773 81.83381806 -2.80610371 76.58101123 -8.5 71.0625 C-9.43070313 70.19431641 -10.36140625 69.32613281 -11.3203125 68.43164062 C-12.19429687 67.57892578 -13.06828125 66.72621094 -13.96875 65.84765625 C-14.76732422 65.08461182 -15.56589844 64.32156738 -16.38867188 63.53540039 C-18.17406231 60.72611558 -18.29180507 59.37865872 -17.59927368 56.15962219 C-16.2336689 51.2383475 -14.74120171 46.36777628 -13.18359375 41.50390625 C-12.80767593 40.31522446 -12.43175812 39.12654266 -12.04444885 37.90184021 C-11.05049564 34.7622901 -10.05181841 31.62429641 -9.05078125 28.48699951 C-8.0278845 25.27711124 -7.0112883 22.06522928 -5.99414062 18.85351562 C-4.00186179 12.56716773 -2.00333633 6.28283225 0 0 Z " fill="#FB6363" transform="translate(247,157)"/>
<path d="M0 0 C2.43012522 0.53355148 4.42561773 1.40881753 6.6796875 2.46484375 C8.8790226 3.20064084 11.08819874 3.90745838 13.3046875 4.58984375 C14.96177734 5.10417969 14.96177734 5.10417969 16.65234375 5.62890625 C20.36545911 6.6542052 22.88302668 7.11108389 26.6796875 6.46484375 C27.2984375 5.76359375 27.9171875 5.06234375 28.5546875 4.33984375 C29.6065625 3.41171875 29.6065625 3.41171875 30.6796875 2.46484375 C33.80519801 2.68345224 36.68662567 3.57544637 39.6796875 4.46484375 C41.34503417 4.80471042 43.01098263 5.14186861 44.6796875 5.46484375 C44.9065625 6.72296875 45.1334375 7.98109375 45.3671875 9.27734375 C46.14595598 12.36518801 46.40792859 13.23837799 48.9296875 15.33984375 C51.81462804 16.5200467 54.69589584 17.5627672 57.6796875 18.46484375 C57.6796875 18.79484375 57.6796875 19.12484375 57.6796875 19.46484375 C31.9396875 19.46484375 6.1996875 19.46484375 -20.3203125 19.46484375 C-18.3403125 17.15484375 -16.3603125 14.84484375 -14.3203125 12.46484375 C-12.88751953 10.79228516 -12.88751953 10.79228516 -11.42578125 9.0859375 C-3.99766818 0.80087965 -3.99766818 0.80087965 0 0 Z " fill="#FD6463" transform="translate(296.3203125,228.53515625)"/>
<path d="M0 0 C26.07 0 52.14 0 79 0 C70.93936382 9.40407555 70.93936382 9.40407555 67.0625 13.5 C66.33256836 14.32371094 66.33256836 14.32371094 65.58789062 15.1640625 C64.09765625 16.71875 64.09765625 16.71875 61 19 C55.09342126 19.00683632 49.42639476 16.63567294 43.87304688 14.72851562 C39.79525352 13.38491993 36.29557 12.53976036 32 13 C31.360625 13.680625 30.72125 14.36125 30.0625 15.0625 C29.381875 15.701875 28.70125 16.34125 28 17 C24.5625 16.875 24.5625 16.875 21 16 C20.071875 15.79375 19.14375 15.5875 18.1875 15.375 C14.93919194 13.33320636 15.00985041 10.5975921 14 7 C10.09157739 3.68376263 4.84335039 2.48782659 0 1 C0 0.67 0 0.34 0 0 Z " fill="#D83056" transform="translate(157,264)"/>
<path d="M0 0 C2.475 6.435 2.475 6.435 5 13 C3.68 14.32 2.36 15.64 1 17 C-0.03689824 22.60573112 2.53030952 26.88571097 5 31.75 C5.7532014 33.26403659 6.50335845 34.77959271 7.25 36.296875 C7.58515625 36.96041992 7.9203125 37.62396484 8.265625 38.30761719 C9 40 9 40 9 42 C4.2130461 40.5085545 -0.26023291 38.61378989 -4.8046875 36.5234375 C-5.5286673 36.19332672 -6.25264709 35.86321594 -6.99856567 35.52310181 C-9.29202176 34.47657751 -11.58352783 33.42586008 -13.875 32.375 C-15.4373727 31.66117964 -16.99987145 30.9476351 -18.5625 30.234375 C-22.37646568 28.49277094 -26.18868917 26.74740578 -30 25 C-28.20861325 12.33107492 -28.20861325 12.33107492 -26 8 C-23.0589251 6.32762407 -21.22217759 5.76520956 -18 5 C-16.6596587 4.58541893 -15.32266948 4.15992185 -13.98828125 3.7265625 C-2.50354042 0 -2.50354042 0 0 0 Z " fill="#AC284B" transform="translate(324,291)"/>
<path d="M0 0 C2.12817383 1.65820312 2.12817383 1.65820312 4.20703125 3.78125 C4.95791016 4.54050781 5.70878906 5.29976562 6.48242188 6.08203125 C7.25134766 6.87996094 8.02027344 7.67789063 8.8125 8.5 C9.60076172 9.29792969 10.38902344 10.09585938 11.20117188 10.91796875 C17 16.83227137 17 16.83227137 17 18 C-9.07 18 -35.14 18 -62 18 C-59.15696516 16.10464344 -57.0025407 15.22910868 -53.78173828 14.1965332 C-52.71698273 13.85310379 -51.65222717 13.50967438 -50.5552063 13.15583801 C-49.40519135 12.79116928 -48.25517639 12.42650055 -47.0703125 12.05078125 C-45.88782928 11.67390671 -44.70534607 11.29703217 -43.48703003 10.90873718 C-40.98453498 10.11353902 -38.48118326 9.32103253 -35.97705078 8.53100586 C-33.4101014 7.72090458 -30.84583544 6.90305275 -28.28369141 6.07788086 C-24.59116461 4.89050524 -20.89401884 3.71874495 -17.1953125 2.55078125 C-15.47636276 1.99466911 -15.47636276 1.99466911 -13.72268677 1.42732239 C-12.65162689 1.09334946 -11.58056702 0.75937653 -10.47705078 0.4152832 C-9.53789825 0.11709183 -8.59874573 -0.18109955 -7.63113403 -0.48832703 C-4.70417511 -1.05752865 -2.84074457 -0.85828055 0 0 Z " fill="#A1D7FB" transform="translate(219,230)"/>
<path d="M0 0 C0 25.74 0 51.48 0 78 C-1.83705419 75.24441872 -2.73824655 73.15903885 -3.76953125 70.0546875 C-4.09856445 69.06831299 -4.42759766 68.08193848 -4.76660156 67.06567383 C-5.11174805 66.01275146 -5.45689453 64.9598291 -5.8125 63.875 C-6.16924805 62.79565186 -6.52599609 61.71630371 -6.89355469 60.60424805 C-9.37639886 53.03943754 -11.71615531 45.44544814 -13.8984375 37.7890625 C-15.28127954 33.03247819 -16.82307123 28.33275331 -18.3984375 23.63671875 C-19.0531317 20.76711754 -19.00557741 19.71823119 -18 17 C-16.34179688 14.98535156 -16.34179688 14.98535156 -14.21875 12.890625 C-13.45949219 12.13652344 -12.70023438 11.38242187 -11.91796875 10.60546875 C-11.12003906 9.82816406 -10.32210937 9.05085938 -9.5 8.25 C-8.70207031 7.45722656 -7.90414062 6.66445313 -7.08203125 5.84765625 C-1.1538565 0 -1.1538565 0 0 0 Z " fill="#1EBEFD" transform="translate(248,276)"/>
<path d="M0 0 C2.31 1.98 4.62 3.96 7 6 C8.67255859 7.43279297 8.67255859 7.43279297 10.37890625 8.89453125 C18.6639641 16.32264432 18.6639641 16.32264432 19.46484375 20.3203125 C18.93227782 22.74594891 18.05122479 24.7500101 17 27 C16.37491641 29.01446152 15.77253315 31.03604474 15.1875 33.0625 C14.46105758 35.37585723 13.73173893 37.68831265 13 40 C12.41255221 41.88497557 11.82513159 43.76995984 11.23876953 45.65527344 C10.61640599 47.65258014 9.99016541 49.64863919 9.36328125 51.64453125 C8.37114481 54.80545597 7.39239063 57.97029028 6.41796875 61.13671875 C5.8829121 62.86201006 5.34775747 64.58727098 4.8125 66.3125 C4.56258301 67.13121582 4.31266602 67.94993164 4.05517578 68.79345703 C3.81653809 69.55899902 3.57790039 70.32454102 3.33203125 71.11328125 C3.01842651 72.13095581 3.01842651 72.13095581 2.69848633 73.16918945 C2 75 2 75 0 78 C0 52.26 0 26.52 0 0 Z " fill="#D93055" transform="translate(264,276)"/>
<path d="M0 0 C25.74 0 51.48 0 78 0 C75.24441872 1.83705419 73.15903885 2.73824655 70.0546875 3.76953125 C69.06831299 4.09856445 68.08193848 4.42759766 67.06567383 4.76660156 C66.01275146 5.11174805 64.9598291 5.45689453 63.875 5.8125 C62.79565186 6.16924805 61.71630371 6.52599609 60.60424805 6.89355469 C53.03943754 9.37639886 45.44544814 11.71615531 37.7890625 13.8984375 C33.03247819 15.28127954 28.33275331 16.82307123 23.63671875 18.3984375 C20.76711754 19.0531317 19.71823119 19.00557741 17 18 C14.98535156 16.34179688 14.98535156 16.34179688 12.890625 14.21875 C12.13652344 13.45949219 11.38242187 12.70023437 10.60546875 11.91796875 C9.82816406 11.12003906 9.05085938 10.32210938 8.25 9.5 C7.45722656 8.70207031 6.66445313 7.90414063 5.84765625 7.08203125 C0 1.1538565 0 1.1538565 0 0 Z " fill="#1EBEFD" transform="translate(276,264)"/>
<path d="M0 0 C0.59385498 0.13494873 1.18770996 0.26989746 1.79956055 0.40893555 C6.72899049 1.52913651 6.72899049 1.52913651 11.70703125 2.39453125 C14.28225267 2.90575331 15.87409382 3.42682943 18 5 C20.69199044 10.45634622 22 15.92926568 22 22 C17.0907195 24.26473863 12.17938954 26.52494898 7.26611328 28.78100586 C5.59529573 29.54897236 3.92504289 30.3181687 2.25537109 31.08862305 C-0.14598204 32.19644539 -2.54933758 33.29981525 -4.953125 34.40234375 C-5.69806213 34.74716293 -6.44299927 35.09198212 -7.21051025 35.44725037 C-10.44802289 36.92754541 -13.52946164 38.21388652 -17 39 C-15.5085545 34.2130461 -13.61378989 29.73976709 -11.5234375 25.1953125 C-11.02827133 24.1093428 -11.02827133 24.1093428 -10.52310181 23.00143433 C-9.47657751 20.70797824 -8.42586008 18.41647217 -7.375 16.125 C-6.66117964 14.5626273 -5.9476351 13.00012855 -5.234375 11.4375 C-3.49277094 7.62353432 -1.74740578 3.81131083 0 0 Z " fill="#299AF9" transform="translate(196,294)"/>
<path d="M0 0 C-1.4914455 4.7869539 -3.38621011 9.26023291 -5.4765625 13.8046875 C-5.80667328 14.5286673 -6.13678406 15.25264709 -6.47689819 15.99856567 C-7.52342249 18.29202176 -8.57413992 20.58352783 -9.625 22.875 C-10.33882036 24.4373727 -11.0523649 25.99987145 -11.765625 27.5625 C-13.50722906 31.37646568 -15.25259422 35.18868917 -17 39 C-18.09940918 38.83967285 -19.19881836 38.6793457 -20.33154297 38.51416016 C-22.44644918 38.21774112 -24.56723968 37.95231898 -26.6953125 37.7734375 C-29.68890309 37.28252715 -31.4940031 36.75250459 -34 35 C-36.83318793 29.44745759 -39 23.28672137 -39 17 C-34.89608529 15.10362092 -30.79182139 13.20799872 -26.6875 11.3125 C-25.53958984 10.78205078 -24.39167969 10.25160156 -23.20898438 9.70507812 C-20.91915638 8.64773545 -18.62863314 7.59189707 -16.33740234 6.53759766 C-14.14277845 5.52649734 -11.95032171 4.51067747 -9.76025391 3.48974609 C-8.77331543 3.03293457 -7.78637695 2.57612305 -6.76953125 2.10546875 C-5.89530518 1.6983667 -5.0210791 1.29126465 -4.12036133 0.87182617 C-2 0 -2 0 0 0 Z " fill="#1EBDFB" transform="translate(333,179)"/>
<path d="M0 0 C4.7869539 1.4914455 9.26023291 3.38621011 13.8046875 5.4765625 C14.5286673 5.80667328 15.25264709 6.13678406 15.99856567 6.47689819 C18.29202176 7.52342249 20.58352783 8.57413992 22.875 9.625 C24.4373727 10.33882036 25.99987145 11.0523649 27.5625 11.765625 C31.37646568 13.50722906 35.18868917 15.25259422 39 17 C38.69104531 18.40906085 38.38091634 19.81786426 38.0703125 21.2265625 C37.89773926 22.01111816 37.72516602 22.79567383 37.54736328 23.60400391 C35.38070333 33.08821478 35.38070333 33.08821478 32.34375 35.09375 C28.76232095 36.514952 24.98232412 37.24418379 21.2265625 38.0703125 C20.43072754 38.24578613 19.63489258 38.42125977 18.81494141 38.60205078 C17.91654541 38.79903564 17.91654541 38.79903564 17 39 C14.73788409 33.92877024 12.47759319 28.85673261 10.21899414 23.78393555 C9.45029072 22.05812578 8.68108793 20.33253836 7.91137695 18.60717773 C6.80549041 16.12802396 5.70139863 13.64807773 4.59765625 11.16796875 C4.25283707 10.39599655 3.90801788 9.62402435 3.55274963 8.82865906 C2.25499798 5.9089474 1.01107211 3.03321633 0 0 Z " fill="#D83055" transform="translate(179,179)"/>
<path d="M0 0 C3.32368467 1.55744014 5.16270316 3.08493545 7.5 5.9375 C9.31996437 8.15041123 10.90317584 9.92891607 13.21875 11.62890625 C13.8065625 12.08136719 14.394375 12.53382813 15 13 C15 13.66 15 14.32 15 15 C11.04447897 16.83944626 7.08513715 18.67051553 3.125 20.5 C1.99707031 21.02464844 0.86914062 21.54929687 -0.29296875 22.08984375 C-1.36933594 22.58613281 -2.44570312 23.08242188 -3.5546875 23.59375 C-4.54968262 24.05458984 -5.54467773 24.51542969 -6.56982422 24.99023438 C-9 26 -9 26 -11 26 C-9.28137532 20.31531835 -6.8358325 15.01576119 -4.375 9.625 C-3.95476562 8.69816406 -3.53453125 7.77132813 -3.1015625 6.81640625 C-2.07035118 4.54305401 -1.03643137 2.27097594 0 0 Z " fill="#027EF9" transform="translate(190,307)"/>
<path d="M0 0 C1.43793392 0.31049726 2.8753318 0.6234776 4.3125 0.9375 C5.11300781 1.11152344 5.91351563 1.28554688 6.73828125 1.46484375 C9 2 9 2 12 3 C11.01 5.97 10.02 8.94 9 12 C5 12 5 12 3.515625 10.64453125 C-0.69034287 4.55626294 -0.69034287 4.55626294 0 0 Z " fill="#C3E599" transform="translate(172,278)"/>
</svg>
