<?xml version="1.0" encoding="UTF-8"?>
<svg version="1.1" xmlns="http://www.w3.org/2000/svg" width="512" height="512">
<path d="M0 0 C2.54942293 2.24620518 5.0277204 4.5518741 7.49609375 6.88671875 C8.38167969 7.69625 9.26726562 8.50578125 10.1796875 9.33984375 C22.3052922 20.8290692 30.71217716 34.72102091 37.49609375 49.88671875 C38.21925781 51.50126953 38.21925781 51.50126953 38.95703125 53.1484375 C52.10798569 84.90998505 50.35611228 121.42434252 37.49609375 152.88671875 C32.28855931 164.64386662 25.86140546 175.129317 17.49609375 184.88671875 C17.06184082 185.39783203 16.62758789 185.90894531 16.18017578 186.43554688 C8.45843721 195.45223539 -0.11870066 203.97659266 -10.50390625 209.88671875 C-8.78107422 210.59634766 -8.78107422 210.59634766 -7.0234375 211.3203125 C17.19724337 221.53391567 33.26346848 236.40958341 43.49609375 260.88671875 C49.9413545 278.18240447 49.90126012 298.5994185 43.49609375 315.88671875 C43.19574219 316.7065625 42.89539063 317.52640625 42.5859375 318.37109375 C41.66520301 320.6191208 40.62744353 322.73715416 39.49609375 324.88671875 C39.026875 325.80710937 38.55765625 326.7275 38.07421875 327.67578125 C28.24254215 345.7941567 12.23437215 358.48793302 -7.26171875 365.17578125 C-17.64541753 368.24018492 -26.88740097 369.03386619 -37.66566467 369.02043152 C-39.01053873 369.02230129 -40.35541224 369.02460266 -41.7002849 369.02729684 C-45.38576174 369.03340096 -49.07121584 369.03328288 -52.75669658 369.03210247 C-56.73575048 369.0318981 -60.71479714 369.03742072 -64.69384766 369.04216003 C-72.48679823 369.05046019 -80.27974124 369.05321461 -88.07269586 369.05377241 C-94.41060629 369.054248 -100.74851423 369.05630487 -107.08642387 369.05947304 C-125.06952061 369.06827888 -143.05261138 369.07289267 -161.03571028 369.07214256 C-162.00482189 369.07210261 -162.97393349 369.07206265 -163.97241211 369.07202148 C-164.94271228 369.0719806 -165.91301246 369.07193972 -166.91271567 369.0718976 C-182.62618212 369.07149144 -198.33962457 369.08105366 -214.05308408 369.09515985 C-230.20125221 369.10954142 -246.34940864 369.11642901 -262.49758333 369.11556607 C-271.55792437 369.11523466 -280.61824026 369.1179573 -289.67857552 369.12874413 C-297.39539519 369.13787271 -305.11217833 369.14000517 -312.82900108 369.1332347 C-316.76185218 369.129981 -320.6946333 369.12987089 -324.62747765 369.13858795 C-328.23691503 369.14650542 -331.84622754 369.14496861 -335.45566206 369.13630382 C-337.36070986 369.13406565 -339.2657617 369.1415562 -341.17079407 369.14954346 C-352.22941644 369.10580089 -363.2603547 367.97412201 -373.87890625 364.76171875 C-374.93198975 364.44630127 -374.93198975 364.44630127 -376.00634766 364.12451172 C-383.9525151 361.61192469 -391.24866388 357.94796815 -398.50390625 353.88671875 C-399.50164062 353.33113281 -400.499375 352.77554687 -401.52734375 352.203125 C-409.04722693 347.71058734 -415.30712656 342.00922197 -421.50390625 335.88671875 C-422.35984375 335.05527344 -423.21578125 334.22382813 -424.09765625 333.3671875 C-435.25464043 321.87478765 -443.79072585 307.17871105 -448.50390625 291.88671875 C-448.81497314 290.89043457 -448.81497314 290.89043457 -449.13232422 289.87402344 C-457.5910903 261.2680145 -453.4425564 229.95812284 -439.50390625 203.88671875 C-434.78488141 195.68904516 -429.03739737 188.69823077 -422.50390625 181.88671875 C-421.67890625 181.02046875 -420.85390625 180.15421875 -420.00390625 179.26171875 C-419.17890625 178.47796875 -418.35390625 177.69421875 -417.50390625 176.88671875 C-416.87226563 176.2834375 -416.240625 175.68015625 -415.58984375 175.05859375 C-401.61040658 162.11649997 -384.81131897 154.41677384 -366.50390625 149.88671875 C-365.53453125 149.63921875 -364.56515625 149.39171875 -363.56640625 149.13671875 C-346.08812441 145.47847371 -326.6462342 147.32429038 -309.50390625 151.88671875 C-309.13458984 150.62408203 -309.13458984 150.62408203 -308.7578125 149.3359375 C-307.37043882 145.51957936 -305.53918429 142.15509328 -303.44140625 138.69921875 C-303.044375 138.04284424 -302.64734375 137.38646973 -302.23828125 136.71020508 C-298.49678999 130.65757578 -294.2051198 125.22677316 -289.50390625 119.88671875 C-288.78460938 119.04625 -288.0653125 118.20578125 -287.32421875 117.33984375 C-269.15705268 96.52195238 -246.47148949 83.47068727 -220.68359375 74.33203125 C-219.96727783 74.07437988 -219.25096191 73.81672852 -218.51293945 73.55126953 C-216.50390625 72.88671875 -216.50390625 72.88671875 -213.1015625 72.13671875 C-210.18641163 71.07462553 -210.18641163 71.07462553 -209.0703125 67.75390625 C-208.71478522 66.42860578 -208.38149087 65.09721216 -208.06640625 63.76171875 C-207.6635255 62.30135874 -207.25313196 60.84305424 -206.8359375 59.38671875 C-206.62275879 58.6390625 -206.40958008 57.89140625 -206.18994141 57.12109375 C-197.41742923 28.54955231 -175.63088047 4.27542784 -150.50390625 -11.11328125 C-149.89998047 -11.48678711 -149.29605469 -11.86029297 -148.67382812 -12.24511719 C-102.90748755 -40.00132264 -40.63972589 -34.29967505 0 0 Z " fill="#62CAE4" transform="translate(458.50390625,86.11328125)"/>
<path d="M0 0 C2.54942293 2.24620518 5.0277204 4.5518741 7.49609375 6.88671875 C8.38167969 7.69625 9.26726562 8.50578125 10.1796875 9.33984375 C22.3052922 20.8290692 30.71217716 34.72102091 37.49609375 49.88671875 C38.21925781 51.50126953 38.21925781 51.50126953 38.95703125 53.1484375 C52.10798569 84.90998505 50.35611228 121.42434252 37.49609375 152.88671875 C32.28855931 164.64386662 25.86140546 175.129317 17.49609375 184.88671875 C17.06184082 185.39783203 16.62758789 185.90894531 16.18017578 186.43554688 C8.45843721 195.45223539 -0.11870066 203.97659266 -10.50390625 209.88671875 C-8.78107422 210.59634766 -8.78107422 210.59634766 -7.0234375 211.3203125 C17.19724337 221.53391567 33.26346848 236.40958341 43.49609375 260.88671875 C49.9413545 278.18240447 49.90126012 298.5994185 43.49609375 315.88671875 C43.19574219 316.7065625 42.89539063 317.52640625 42.5859375 318.37109375 C41.66520301 320.6191208 40.62744353 322.73715416 39.49609375 324.88671875 C39.026875 325.80710937 38.55765625 326.7275 38.07421875 327.67578125 C28.24254215 345.7941567 12.23437215 358.48793302 -7.26171875 365.17578125 C-17.64541753 368.24018492 -26.88740097 369.03386619 -37.66566467 369.02043152 C-39.01053873 369.02230129 -40.35541224 369.02460266 -41.7002849 369.02729684 C-45.38576174 369.03340096 -49.07121584 369.03328288 -52.75669658 369.03210247 C-56.73575048 369.0318981 -60.71479714 369.03742072 -64.69384766 369.04216003 C-72.48679823 369.05046019 -80.27974124 369.05321461 -88.07269586 369.05377241 C-94.41060629 369.054248 -100.74851423 369.05630487 -107.08642387 369.05947304 C-125.06952061 369.06827888 -143.05261138 369.07289267 -161.03571028 369.07214256 C-162.00482189 369.07210261 -162.97393349 369.07206265 -163.97241211 369.07202148 C-164.94271228 369.0719806 -165.91301246 369.07193972 -166.91271567 369.0718976 C-182.62618212 369.07149144 -198.33962457 369.08105366 -214.05308408 369.09515985 C-230.20125221 369.10954142 -246.34940864 369.11642901 -262.49758333 369.11556607 C-271.55792437 369.11523466 -280.61824026 369.1179573 -289.67857552 369.12874413 C-297.39539519 369.13787271 -305.11217833 369.14000517 -312.82900108 369.1332347 C-316.76185218 369.129981 -320.6946333 369.12987089 -324.62747765 369.13858795 C-328.23691503 369.14650542 -331.84622754 369.14496861 -335.45566206 369.13630382 C-337.36070986 369.13406565 -339.2657617 369.1415562 -341.17079407 369.14954346 C-352.22941644 369.10580089 -363.2603547 367.97412201 -373.87890625 364.76171875 C-374.93198975 364.44630127 -374.93198975 364.44630127 -376.00634766 364.12451172 C-383.9525151 361.61192469 -391.24866388 357.94796815 -398.50390625 353.88671875 C-399.50164062 353.33113281 -400.499375 352.77554687 -401.52734375 352.203125 C-409.04722693 347.71058734 -415.30712656 342.00922197 -421.50390625 335.88671875 C-422.35984375 335.05527344 -423.21578125 334.22382813 -424.09765625 333.3671875 C-435.25464043 321.87478765 -443.79072585 307.17871105 -448.50390625 291.88671875 C-448.81497314 290.89043457 -448.81497314 290.89043457 -449.13232422 289.87402344 C-457.5910903 261.2680145 -453.4425564 229.95812284 -439.50390625 203.88671875 C-434.78488141 195.68904516 -429.03739737 188.69823077 -422.50390625 181.88671875 C-421.67890625 181.02046875 -420.85390625 180.15421875 -420.00390625 179.26171875 C-419.17890625 178.47796875 -418.35390625 177.69421875 -417.50390625 176.88671875 C-416.87226563 176.2834375 -416.240625 175.68015625 -415.58984375 175.05859375 C-401.61040658 162.11649997 -384.81131897 154.41677384 -366.50390625 149.88671875 C-365.53453125 149.63921875 -364.56515625 149.39171875 -363.56640625 149.13671875 C-346.08812441 145.47847371 -326.6462342 147.32429038 -309.50390625 151.88671875 C-309.13458984 150.62408203 -309.13458984 150.62408203 -308.7578125 149.3359375 C-307.37043882 145.51957936 -305.53918429 142.15509328 -303.44140625 138.69921875 C-303.044375 138.04284424 -302.64734375 137.38646973 -302.23828125 136.71020508 C-298.49678999 130.65757578 -294.2051198 125.22677316 -289.50390625 119.88671875 C-288.78460938 119.04625 -288.0653125 118.20578125 -287.32421875 117.33984375 C-269.15705268 96.52195238 -246.47148949 83.47068727 -220.68359375 74.33203125 C-219.96727783 74.07437988 -219.25096191 73.81672852 -218.51293945 73.55126953 C-216.50390625 72.88671875 -216.50390625 72.88671875 -213.1015625 72.13671875 C-210.18641163 71.07462553 -210.18641163 71.07462553 -209.0703125 67.75390625 C-208.71478522 66.42860578 -208.38149087 65.09721216 -208.06640625 63.76171875 C-207.6635255 62.30135874 -207.25313196 60.84305424 -206.8359375 59.38671875 C-206.62275879 58.6390625 -206.40958008 57.89140625 -206.18994141 57.12109375 C-197.41742923 28.54955231 -175.63088047 4.27542784 -150.50390625 -11.11328125 C-149.89998047 -11.48678711 -149.29605469 -11.86029297 -148.67382812 -12.24511719 C-102.90748755 -40.00132264 -40.63972589 -34.29967505 0 0 Z M-252.50390625 113.88671875 C-253.468125 114.62921875 -254.43234375 115.37171875 -255.42578125 116.13671875 C-269.7212002 127.50986973 -283.12924622 141.90063994 -290.50390625 158.88671875 C-290.66663945 161.12979332 -290.66663945 161.12979332 -289.50390625 162.88671875 C-287.5431256 164.40100539 -287.5431256 164.40100539 -285.06640625 165.63671875 C-279.38041742 168.85796564 -274.47342216 172.66006862 -269.50390625 176.88671875 C-268.85679687 177.39074219 -268.2096875 177.89476562 -267.54296875 178.4140625 C-265.22003051 180.3825618 -263.6685905 182.09651111 -263.0390625 185.1171875 C-262.89927148 188.54486333 -263.22812375 191.19726249 -264.50390625 194.38671875 C-267.60266958 196.71079125 -270.73461298 197.16163841 -274.50390625 196.88671875 C-277.83136826 195.29532387 -279.93943349 193.42181374 -282.60546875 190.89453125 C-293.48232286 180.655408 -305.20787527 174.8147017 -319.50390625 170.88671875 C-320.15528564 170.70125488 -320.80666504 170.51579102 -321.4777832 170.32470703 C-341.80934058 165.09425934 -365.08631866 168.14586131 -383.50390625 177.88671875 C-384.94830078 178.62341797 -384.94830078 178.62341797 -386.421875 179.375 C-394.59959241 183.80768253 -400.97311571 189.3652181 -407.50390625 195.88671875 C-408.60025391 196.96566406 -408.60025391 196.96566406 -409.71875 198.06640625 C-426.14669284 215.30761359 -433.07103989 238.27728725 -432.92333984 261.68774414 C-432.27200605 286.0245162 -420.56042793 307.99602436 -403.50390625 324.88671875 C-380.86197348 345.82324953 -355.05855162 348.50768782 -325.61251986 348.42427647 C-321.5708597 348.41721609 -317.52927691 348.43333347 -313.48764038 348.4462738 C-305.59241069 348.46780429 -297.69732574 348.46781548 -289.80207639 348.45964826 C-283.38050389 348.45332386 -276.95897329 348.45450753 -270.5374012 348.46092033 C-269.6201288 348.46182199 -268.7028564 348.46272364 -267.75778787 348.46365262 C-265.89382464 348.46550399 -264.02986142 348.46736656 -262.16589821 348.46924018 C-244.72771691 348.48577987 -227.28961677 348.47713149 -209.85144038 348.4602546 C-193.92650477 348.44555468 -178.0017578 348.46019697 -162.07684647 348.48902477 C-145.68651062 348.51847206 -129.29626167 348.52937593 -112.90590054 348.51984257 C-111.04946555 348.51882011 -109.19303055 348.51782549 -107.33659554 348.51685905 C-106.423413 348.51638266 -105.51023047 348.51590627 -104.56937573 348.51541545 C-98.16162337 348.51325871 -91.753954 348.52301558 -85.34622002 348.53763008 C-77.52861794 348.55521312 -69.71125634 348.55495053 -61.89366346 348.53227843 C-57.91176697 348.5211913 -53.9302932 348.51784682 -49.94841576 348.53657913 C-29.69085501 348.62476937 -12.40700097 348.51415713 4.49609375 335.88671875 C5.12644531 335.44972656 5.75679688 335.01273438 6.40625 334.5625 C16.75915975 326.70938167 24.32216198 312.48168367 26.49609375 299.88671875 C27.32215275 287.84448759 28.11910239 274.86812387 22.49609375 263.88671875 C21.9753125 262.86578125 21.45453125 261.84484375 20.91796875 260.79296875 C11.79726282 244.19492732 -1.26781912 234.63073734 -19.35131836 229.34692383 C-31.13749829 226.82713828 -46.75552191 227.38302798 -57.50390625 232.88671875 C-59.0353125 233.66789062 -59.0353125 233.66789062 -60.59765625 234.46484375 C-66.28339946 237.58918779 -71.25575668 241.0582911 -75.98046875 245.50390625 C-78.15348017 247.476332 -79.36335366 247.8711018 -82.31640625 248.19921875 C-86.23467075 247.81507517 -87.71683892 246.59415558 -90.50390625 243.88671875 C-92.01280094 240.86892938 -92.00416901 239.26349238 -91.50390625 235.88671875 C-82.47852225 221.53344677 -64.04580893 214.34956472 -48.29296875 210.515625 C-47.37257813 210.30808594 -46.4521875 210.10054688 -45.50390625 209.88671875 C-43.08422009 183.43148335 -58.08719809 154.68178486 -74.50390625 134.88671875 C-94.60241561 110.91803692 -124.78840345 91.72554624 -156.50390625 88.88671875 C-162.1094061 88.61338445 -167.70478276 88.52110653 -173.31640625 88.51171875 C-174.01406097 88.50954346 -174.7117157 88.50736816 -175.43051147 88.50512695 C-203.81558161 88.51515037 -229.91139493 96.48927688 -252.50390625 113.88671875 Z " fill="#5C4962" transform="translate(458.50390625,86.11328125)"/>
<path d="M0 0 C4.09133027 3.32928614 7.89340067 6.93643166 11.63085938 10.65429688 C12.80235201 11.80573543 14.01469711 12.91535613 15.234375 14.015625 C29.31791531 26.97248209 38.38911998 46.72635446 43 65 C43.33644531 66.22396484 43.33644531 66.22396484 43.6796875 67.47265625 C50.1072439 95.25202672 42.38018633 125.35152945 28.07666016 149.32324219 C25.14315159 153.89179929 21.58350822 157.93915188 18 162 C17.1422865 163.08052735 16.28743239 164.16334148 15.4375 165.25 C9.33365128 172.13639342 1.80308999 178.14670494 -6 183 C-6.99 183 -7.98 183 -9 183 C-9.12004395 182.44763672 -9.24008789 181.89527344 -9.36376953 181.32617188 C-18.27657973 140.84541212 -38.63053231 105.09835898 -74.19335938 82.13818359 C-84.68092221 75.53101901 -95.31563128 70.15740505 -107 66 C-107.62841797 65.77328613 -108.25683594 65.54657227 -108.90429688 65.31298828 C-128.54080894 58.33056356 -148.29750216 57.42022565 -169 57 C-168.49049012 51.38083384 -166.98034801 47.2267662 -164.375 42.25 C-164.0138208 41.5497168 -163.6526416 40.84943359 -163.28051758 40.12792969 C-157.45710134 28.98970368 -150.67916541 20.00301486 -142 11 C-141.40445312 10.34128906 -140.80890625 9.68257812 -140.1953125 9.00390625 C-105.352298 -28.52600738 -39.75612679 -29.58151985 0 0 Z " fill="#FDC95F" transform="translate(441,98)"/>
<path d="M0 0 C48.43932589 3.24335171 89.74245339 19.43800726 125 53 C125.75667969 53.69222656 126.51335937 54.38445312 127.29296875 55.09765625 C138.42175008 65.61830745 147.47871178 78.72147837 155 92 C155.33338379 92.58458984 155.66676758 93.16917969 156.01025391 93.77148438 C161.17417072 102.89254627 165.44531357 112.13393155 169 122 C169.23831543 122.63421875 169.47663086 123.2684375 169.72216797 123.921875 C171.19845307 127.90997256 172.45927363 131.77453 173 136 C171.33412922 139.27224617 170.75636438 139.97907813 168 142 C166.79134048 143.12464955 165.58303158 144.24967598 164.375 145.375 C150.72147651 157 150.72147651 157 146 157 C145.87995605 156.44763672 145.75991211 155.89527344 145.63623047 155.32617188 C136.72342027 114.84541212 116.36946769 79.09835898 80.80664062 56.13818359 C70.31907779 49.53101901 59.68436872 44.15740505 48 40 C47.37158203 39.77328613 46.74316406 39.54657227 46.09570312 39.31298828 C26.45919106 32.33056356 6.70249784 31.42022565 -14 31 C-13.49547673 25.29443537 -11.89771495 21.10970662 -9.25 16.0625 C-8.74726563 15.06573242 -8.74726563 15.06573242 -8.234375 14.04882812 C-5.74921972 9.19618591 -2.95062338 4.58231506 0 0 Z " fill="#EEBD5F" transform="translate(286,124)"/>
<path d="M0 0 C-3.11951911 2.57484117 -6.48325614 4.37882336 -10.03979492 6.25854492 C-38.69762977 21.49378697 -60.63975542 45.97119264 -73 76 C-78.0671175 75.05176749 -83.04016568 73.74665198 -88.02929688 72.4609375 C-92.00253218 71.45162275 -95.9407065 70.60984691 -100 70 C-86.22888365 39.54153089 -58.99807298 17.48140128 -28.25390625 5.54296875 C-19.04638158 2.12087026 -9.92316773 -0.69636265 0 0 Z " fill="#62BDD6" transform="translate(268,176)"/>
</svg>
